<?xml version="1.0" encoding="utf-8"?>
<!-- Generator: Adobe Illustrator 22.1.0, SVG Export Plug-In . SVG Version: 6.00 Build 0)  -->
<svg version="1.1" id="Layer_1" xmlns="http://www.w3.org/2000/svg" xmlns:xlink="http://www.w3.org/1999/xlink" x="0px" y="0px"
	 viewBox="0 0 1152.2 738" style="enable-background:new 0 0 1152.2 738;" xml:space="preserve">
<style type="text/css">
	.st0{clip-path:url(#SVGID_2_);fill:none;stroke:#FFFFFF;stroke-width:2.085;}
</style>
<g>
	<defs>
		<rect id="SVGID_1_" width="1152.2" height="738"/>
	</defs>
	<clipPath id="SVGID_2_">
		<use xlink:href="#SVGID_1_"  style="overflow:visible;"/>
	</clipPath>
	<polyline class="st0" points="-11.8,0 449,0 461.5,12.5 474,0 1258.7,0 	"/>
	<polyline class="st0" points="-19.2,21.3 441.6,21.3 454.1,33.8 466.6,21.3 1258.7,21.3 	"/>
	<polyline class="st0" points="-26.5,42.7 434.2,42.7 446.7,55.2 459.2,42.7 1258.7,42.7 	"/>
	<polyline class="st0" points="-33.9,64 426.8,64 439.3,76.5 451.9,64 1258.7,64 	"/>
	<polyline class="st0" points="-41.3,85.4 419.5,85.4 432,97.9 444.5,85.4 1258.7,85.4 	"/>
	<polyline class="st0" points="-48.7,106.7 412.1,106.7 424.6,119.2 437.1,106.7 1258.7,106.7 	"/>
	<polyline class="st0" points="-56.1,128 404.7,128 417.2,140.5 429.7,128 1258.7,128 	"/>
	<polyline class="st0" points="-63.5,149.4 397.3,149.4 409.8,161.9 422.3,149.4 1258.7,149.4 	"/>
	<polyline class="st0" points="-70.9,170.7 389.9,170.7 402.4,183.2 414.9,170.7 1258.7,170.7 	"/>
	<polyline class="st0" points="-78.3,192 382.5,192 395,204.6 407.5,192 1258.7,192 	"/>
	<polyline class="st0" points="-85.6,213.4 375.1,213.4 387.6,225.9 400.1,213.4 1258.7,213.4 	"/>
	<polyline class="st0" points="-93,234.7 367.7,234.7 380.2,247.2 392.8,234.7 1258.7,234.7 	"/>
	<polyline class="st0" points="-100.4,256.1 360.4,256.1 372.9,268.6 385.4,256.1 1258.7,256.1 	"/>
	<polyline class="st0" points="-107.8,277.4 353,277.4 365.5,289.9 378,277.4 1258.7,277.4 	"/>
	<polyline class="st0" points="-115.2,298.7 345.6,298.7 358.1,311.2 370.6,298.7 1258.7,298.7 	"/>
	<polyline class="st0" points="-122.6,320.1 338.2,320.1 350.7,332.6 363.2,320.1 1258.7,320.1 	"/>
	<polyline class="st0" points="-130,341.4 330.8,341.4 343.3,353.9 355.8,341.4 1258.7,341.4 	"/>
	<polyline class="st0" points="-137.4,362.7 323.4,362.7 335.9,375.3 348.4,362.7 1258.7,362.7 	"/>
	<polyline class="st0" points="-144.7,384.1 316,384.1 328.5,396.6 341,384.1 1258.7,384.1 	"/>
	<polyline class="st0" points="-152.1,405.4 308.6,405.4 321.1,417.9 333.7,405.4 1258.7,405.4 	"/>
	<polyline class="st0" points="-159.5,426.8 301.3,426.8 313.8,439.3 326.3,426.8 1258.7,426.8 	"/>
	<polyline class="st0" points="-166.9,448.1 293.9,448.1 306.4,460.6 318.9,448.1 1258.7,448.1 	"/>
	<polyline class="st0" points="-173.7,469.4 287.1,469.4 299.6,481.9 312.1,469.4 1258.7,469.4 	"/>
	<polyline class="st0" points="-181.1,490.8 279.7,490.8 292.2,503.3 304.7,490.8 1258.7,490.8 	"/>
	<polyline class="st0" points="-188.5,512.1 272.3,512.1 284.8,524.6 297.3,512.1 1258.7,512.1 	"/>
	<polyline class="st0" points="-195.9,533.4 264.9,533.4 277.4,546 289.9,533.4 1258.7,533.4 	"/>
	<polyline class="st0" points="-203.3,554.8 257.5,554.8 270,567.3 282.5,554.8 1258.7,554.8 	"/>
	<polyline class="st0" points="-210.6,576.1 250.1,576.1 262.6,588.6 275.2,576.1 1258.7,576.1 	"/>
	<polyline class="st0" points="-218,597.5 242.7,597.5 255.3,610 267.8,597.5 1258.7,597.5 	"/>
	<polyline class="st0" points="-225.4,618.8 235.4,618.8 247.9,631.3 260.4,618.8 1258.7,618.8 	"/>
	<polyline class="st0" points="-232.8,640.1 228,640.1 240.5,652.6 253,640.1 1258.7,640.1 	"/>
	<polyline class="st0" points="-240.2,661.5 220.6,661.5 233.1,674 245.6,661.5 1258.7,661.5 	"/>
	<polyline class="st0" points="-247.6,682.8 213.2,682.8 225.7,695.3 238.2,682.8 1258.7,682.8 	"/>
	<polyline class="st0" points="-255,704.2 205.8,704.2 218.3,716.7 230.8,704.2 1258.7,704.2 	"/>
	<polyline class="st0" points="-262.4,725.5 198.4,725.5 210.9,738 223.4,725.5 1258.7,725.5 	"/>
</g>
</svg>
