<?xml version="1.0" encoding="utf-8"?>
<!-- Generator: Adobe Illustrator 22.1.0, SVG Export Plug-In . SVG Version: 6.00 Build 0)  -->
<svg version="1.1" id="Layer_1" xmlns="http://www.w3.org/2000/svg" xmlns:xlink="http://www.w3.org/1999/xlink" x="0px" y="0px"
	 viewBox="0 0 1152.2 706.3" style="enable-background:new 0 0 1152.2 706.3;" xml:space="preserve">
<style type="text/css">
	.st0{fill:#FFFFFF;}
</style>
<polygon class="st0" points="938.3,87.2 976.1,90 976.3,83 946.3,80.8 949.2,50.7 942,49.4 "/>
<polygon class="st0" points="942,0 938.3,37.8 976.1,40.6 976.3,33.6 946.3,31.4 949.2,1.3 "/>
<polygon class="st0" points="935.9,489 971.5,502.1 973.7,495.5 945.4,485 956.5,457 950,453.7 "/>
<polygon class="st0" points="937,288.2 974.1,296.2 975.2,289.3 945.8,282.9 952.9,253.6 946,251.2 "/>
<polygon class="st0" points="935.5,690.8 970.1,706.3 972.7,699.8 945.2,687.5 958.3,660.2 952,656.5 "/>
<polygon class="st0" points="937.9,137.5 975.7,141.6 976.1,134.6 946.2,131.3 950.2,101.4 943,99.8 "/>
<polygon class="st0" points="935.5,538.7 970.1,554.3 972.7,547.8 945.2,535.4 958.3,508.1 952,504.4 "/>
<polygon class="st0" points="936.7,338.4 973.5,347.7 974.9,340.9 945.7,333.5 953.8,304.4 947,301.8 "/>
<polygon class="st0" points="937.6,187.7 975.2,193.1 975.9,186.2 946,181.9 951.1,152.1 944,150.2 "/>
<polygon class="st0" points="935.5,589.4 970.1,605 972.7,598.5 945.2,586.1 958.3,558.8 952,555.1 "/>
<polygon class="st0" points="936.4,388.6 972.9,399.2 974.5,392.4 945.6,384 954.7,355.2 948,352.4 "/>
<polygon class="st0" points="937.3,238 974.6,244.7 975.6,237.8 945.9,232.4 952,202.8 945,200.7 "/>
<polygon class="st0" points="935.5,640.1 970.1,655.7 972.7,649.1 945.2,636.8 958.3,609.5 952,605.8 "/>
<polygon class="st0" points="936.2,438.8 972.2,450.7 974.1,444 945.5,434.5 955.6,406.1 949,403 "/>
<polygon class="st0" points="1114.2,87.2 1152,90 1152.2,83 1122.2,80.8 1125.1,50.7 1117.9,49.4 "/>
<polygon class="st0" points="1117.9,0 1114.2,37.8 1152,40.6 1152.2,33.6 1122.2,31.4 1125.1,1.3 "/>
<polygon class="st0" points="1111.8,489 1147.4,502.1 1149.5,495.5 1121.3,485 1132.4,457 1125.8,453.7 "/>
<polygon class="st0" points="1112.8,288.2 1149.9,296.2 1151.1,289.3 1121.7,282.9 1128.8,253.6 1121.8,251.2 "/>
<polygon class="st0" points="1111.4,690.8 1146,706.3 1148.6,699.8 1121.1,687.5 1134.2,660.2 1127.9,656.5 "/>
<polygon class="st0" points="1113.8,137.5 1151.5,141.6 1152,134.6 1122,131.3 1126,101.4 1118.9,99.8 "/>
<polygon class="st0" points="1111.4,538.7 1146,554.3 1148.6,547.8 1121.1,535.4 1134.2,508.1 1127.9,504.4 "/>
<polygon class="st0" points="1112.6,338.4 1149.3,347.7 1150.8,340.9 1121.6,333.5 1129.7,304.4 1122.8,301.8 "/>
<polygon class="st0" points="1113.5,187.7 1151,193.1 1151.7,186.2 1121.9,181.9 1127,152.1 1119.9,150.2 "/>
<polygon class="st0" points="1111.4,589.4 1146,605 1148.6,598.5 1121.1,586.1 1134.2,558.8 1127.9,555.1 "/>
<polygon class="st0" points="1112.3,388.6 1148.7,399.2 1150.4,392.4 1121.5,384 1130.6,355.2 1123.8,352.4 "/>
<polygon class="st0" points="1113.1,238 1150.5,244.7 1151.4,237.8 1121.8,232.4 1127.9,202.8 1120.8,200.7 "/>
<polygon class="st0" points="1111.4,640.1 1146,655.7 1148.6,649.1 1121.1,636.8 1134.2,609.5 1127.9,605.8 "/>
<polygon class="st0" points="1112,438.8 1148.1,450.7 1150,444 1121.4,434.5 1131.5,406.1 1124.8,403 "/>
<polygon class="st0" points="236.7,87.2 274.5,90 274.7,83 244.7,80.8 247.6,50.7 240.4,49.4 "/>
<polygon class="st0" points="240.4,0 236.7,37.8 274.5,40.6 274.7,33.6 244.7,31.4 247.6,1.3 "/>
<polygon class="st0" points="234.3,489 269.9,502.1 272,495.5 243.8,485 254.9,457 248.3,453.7 "/>
<polygon class="st0" points="235.3,288.2 272.4,296.2 273.6,289.3 244.2,282.9 251.3,253.6 244.3,251.2 "/>
<polygon class="st0" points="233.9,690.8 268.5,706.3 271.1,699.8 243.6,687.5 256.7,660.2 250.4,656.5 "/>
<polygon class="st0" points="236.3,137.5 274,141.6 274.5,134.6 244.5,131.3 248.5,101.4 241.4,99.8 "/>
<polygon class="st0" points="233.9,538.7 268.5,554.3 271.1,547.8 243.6,535.4 256.7,508.1 250.4,504.4 "/>
<polygon class="st0" points="235.1,338.4 271.9,347.7 273.3,340.9 244.1,333.5 252.2,304.4 245.3,301.8 "/>
<polygon class="st0" points="236,187.7 273.5,193.1 274.2,186.2 244.4,181.9 249.5,152.1 242.4,150.2 "/>
<polygon class="st0" points="233.9,589.4 268.5,605 271.1,598.5 243.6,586.1 256.7,558.8 250.4,555.1 "/>
<polygon class="st0" points="234.8,388.6 271.2,399.2 272.9,392.4 244,384 253.1,355.2 246.3,352.4 "/>
<polygon class="st0" points="235.6,238 273,244.7 273.9,237.8 244.3,232.4 250.4,202.8 243.3,200.7 "/>
<polygon class="st0" points="233.9,640.1 268.5,655.7 271.1,649.1 243.6,636.8 256.7,609.5 250.4,605.8 "/>
<polygon class="st0" points="234.5,438.8 270.6,450.7 272.5,444 243.9,434.5 254,406.1 247.3,403 "/>
<polygon class="st0" points="704.4,87.2 742.3,90 742.5,83 712.4,80.8 715.4,50.7 708.2,49.4 "/>
<polygon class="st0" points="708.2,0 704.4,37.8 742.3,40.6 742.5,33.6 712.4,31.4 715.4,1.3 "/>
<polygon class="st0" points="702,489 737.7,502.1 739.8,495.5 711.5,485 722.6,457 716.1,453.7 "/>
<polygon class="st0" points="703.1,288.2 740.2,296.2 741.4,289.3 711.9,282.9 719,253.6 712.1,251.2 "/>
<polygon class="st0" points="701.6,690.8 736.2,706.3 738.8,699.8 711.4,687.5 724.4,660.2 718.1,656.5 "/>
<polygon class="st0" points="704.1,137.5 741.8,141.6 742.2,134.6 712.3,131.3 716.3,101.4 709.1,99.8 "/>
<polygon class="st0" points="701.6,538.7 736.2,554.3 738.8,547.8 711.4,535.4 724.4,508.1 718.1,504.4 "/>
<polygon class="st0" points="702.8,338.4 739.6,347.7 741,340.9 711.8,333.5 719.9,304.4 713.1,301.8 "/>
<polygon class="st0" points="703.7,187.7 741.3,193.1 742,186.2 712.2,181.9 717.2,152.1 710.1,150.2 "/>
<polygon class="st0" points="701.6,589.4 736.2,605 738.8,598.5 711.4,586.1 724.4,558.8 718.1,555.1 "/>
<polygon class="st0" points="702.5,388.6 739,399.2 740.6,392.4 711.7,384 720.8,355.2 714.1,352.4 "/>
<polygon class="st0" points="703.4,238 740.8,244.7 741.7,237.8 712.1,232.4 718.1,202.8 711.1,200.7 "/>
<polygon class="st0" points="701.6,640.1 736.2,655.7 738.8,649.1 711.4,636.8 724.4,609.5 718.1,605.8 "/>
<polygon class="st0" points="702.3,438.8 738.3,450.7 740.2,444 711.6,434.5 721.7,406.1 715.1,403 "/>
<polygon class="st0" points="2.8,87.2 40.6,90 40.8,83 10.8,80.8 13.7,50.7 6.5,49.4 "/>
<polygon class="st0" points="6.5,0 2.8,37.8 40.6,40.6 40.8,33.6 10.8,31.4 13.7,1.3 "/>
<polygon class="st0" points="0.4,489 36,502.1 38.2,495.5 9.9,485 21,457 14.5,453.7 "/>
<polygon class="st0" points="1.5,288.2 38.6,296.2 39.7,289.3 10.3,282.9 17.4,253.6 10.5,251.2 "/>
<polygon class="st0" points="0,690.8 34.6,706.3 37.2,699.8 9.7,687.5 22.8,660.2 16.5,656.5 "/>
<polygon class="st0" points="2.4,137.5 40.2,141.6 40.6,134.6 10.7,131.3 14.7,101.4 7.5,99.8 "/>
<polygon class="st0" points="0,538.7 34.6,554.3 37.2,547.8 9.7,535.4 22.8,508.1 16.5,504.4 "/>
<polygon class="st0" points="1.2,338.4 38,347.7 39.4,340.9 10.2,333.5 18.3,304.4 11.5,301.8 "/>
<polygon class="st0" points="2.1,187.7 39.7,193.1 40.4,186.2 10.5,181.9 15.6,152.1 8.5,150.2 "/>
<polygon class="st0" points="0,589.4 34.6,605 37.2,598.5 9.7,586.1 22.8,558.8 16.5,555.1 "/>
<polygon class="st0" points="0.9,388.6 37.4,399.2 39,392.4 10.1,384 19.2,355.2 12.5,352.4 "/>
<polygon class="st0" points="1.8,238 39.1,244.7 40.1,237.8 10.4,232.4 16.5,202.8 9.5,200.7 "/>
<polygon class="st0" points="0,640.1 34.6,655.7 37.2,649.1 9.7,636.8 22.8,609.5 16.5,605.8 "/>
<polygon class="st0" points="0.7,438.8 36.7,450.7 38.6,444 10,434.5 20.1,406.1 13.5,403 "/>
<polygon class="st0" points="470.5,87.2 508.4,90 508.6,83 478.6,80.8 481.5,50.7 474.3,49.4 "/>
<polygon class="st0" points="474.3,0 470.5,37.8 508.4,40.6 508.6,33.6 478.6,31.4 481.5,1.3 "/>
<polygon class="st0" points="468.2,489 503.8,502.1 505.9,495.5 477.7,485 488.8,457 482.2,453.7 "/>
<polygon class="st0" points="469.2,288.2 506.3,296.2 507.5,289.3 478.1,282.9 485.2,253.6 478.2,251.2 "/>
<polygon class="st0" points="467.7,690.8 502.4,706.3 505,699.8 477.5,687.5 490.5,660.2 484.2,656.5 "/>
<polygon class="st0" points="470.2,137.5 507.9,141.6 508.4,134.6 478.4,131.3 482.4,101.4 475.3,99.8 "/>
<polygon class="st0" points="467.7,538.7 502.4,554.3 505,547.8 477.5,535.4 490.5,508.1 484.2,504.4 "/>
<polygon class="st0" points="468.9,338.4 505.7,347.7 507.1,340.9 478,333.5 486.1,304.4 479.2,301.8 "/>
<polygon class="st0" points="469.8,187.7 507.4,193.1 508.1,186.2 478.3,181.9 483.3,152.1 476.2,150.2 "/>
<polygon class="st0" points="467.7,589.4 502.4,605 505,598.5 477.5,586.1 490.5,558.8 484.2,555.1 "/>
<polygon class="st0" points="468.7,388.6 505.1,399.2 506.8,392.4 477.8,384 487,355.2 480.2,352.4 "/>
<polygon class="st0" points="469.5,238 506.9,244.7 507.8,237.8 478.2,232.4 484.2,202.8 477.2,200.7 "/>
<polygon class="st0" points="467.7,640.1 502.4,655.7 505,649.1 477.5,636.8 490.5,609.5 484.2,605.8 "/>
<polygon class="st0" points="468.4,438.8 504.5,450.7 506.4,444 477.8,434.5 487.9,406.1 481.2,403 "/>
<polygon class="st0" points="821.3,87.2 859.2,90 859.4,83 829.4,80.8 832.3,50.7 825.1,49.4 "/>
<polygon class="st0" points="825.1,0 821.3,37.8 859.2,40.6 859.4,33.6 829.4,31.4 832.3,1.3 "/>
<polygon class="st0" points="819,489 854.6,502.1 856.7,495.5 828.5,485 839.6,457 833,453.7 "/>
<polygon class="st0" points="820,288.2 857.1,296.2 858.3,289.3 828.9,282.9 836,253.6 829,251.2 "/>
<polygon class="st0" points="818.6,690.8 853.2,706.3 855.8,699.8 828.3,687.5 841.3,660.2 835,656.5 "/>
<polygon class="st0" points="821,137.5 858.7,141.6 859.2,134.6 829.2,131.3 833.2,101.4 826.1,99.8 "/>
<polygon class="st0" points="818.6,538.7 853.2,554.3 855.8,547.8 828.3,535.4 841.3,508.1 835,504.4 "/>
<polygon class="st0" points="819.7,338.4 856.5,347.7 858,340.9 828.8,333.5 836.9,304.4 830,301.8 "/>
<polygon class="st0" points="820.7,187.7 858.2,193.1 858.9,186.2 829.1,181.9 834.1,152.1 827,150.2 "/>
<polygon class="st0" points="818.6,589.4 853.2,605 855.8,598.5 828.3,586.1 841.3,558.8 835,555.1 "/>
<polygon class="st0" points="819.5,388.6 855.9,399.2 857.6,392.4 828.7,384 837.8,355.2 831,352.4 "/>
<polygon class="st0" points="820.3,238 857.7,244.7 858.6,237.8 829,232.4 835.1,202.8 828,200.7 "/>
<polygon class="st0" points="818.6,640.1 853.2,655.7 855.8,649.1 828.3,636.8 841.3,609.5 835,605.8 "/>
<polygon class="st0" points="819.2,438.8 855.3,450.7 857.2,444 828.6,434.5 838.7,406.1 832,403 "/>
<polygon class="st0" points="997.2,87.2 1035.1,90 1035.3,83 1005.2,80.8 1008.2,50.7 1001,49.4 "/>
<polygon class="st0" points="1001,0 997.2,37.8 1035.1,40.6 1035.3,33.6 1005.2,31.4 1008.2,1.3 "/>
<polygon class="st0" points="994.9,489 1030.5,502.1 1032.6,495.5 1004.3,485 1015.5,457 1008.9,453.7 "/>
<polygon class="st0" points="995.9,288.2 1033,296.2 1034.2,289.3 1004.7,282.9 1011.8,253.6 1004.9,251.2 "/>
<polygon class="st0" points="994.4,690.8 1029.1,706.3 1031.6,699.8 1004.2,687.5 1017.2,660.2 1010.9,656.5 "/>
<polygon class="st0" points="996.9,137.5 1034.6,141.6 1035,134.6 1005.1,131.3 1009.1,101.4 1001.9,99.8 "/>
<polygon class="st0" points="994.4,538.7 1029.1,554.3 1031.6,547.8 1004.2,535.4 1017.2,508.1 1010.9,504.4 "/>
<polygon class="st0" points="995.6,338.4 1032.4,347.7 1033.8,340.9 1004.6,333.5 1012.8,304.4 1005.9,301.8 "/>
<polygon class="st0" points="996.5,187.7 1034.1,193.1 1034.8,186.2 1005,181.9 1010,152.1 1002.9,150.2 "/>
<polygon class="st0" points="994.4,589.4 1029.1,605 1031.6,598.5 1004.2,586.1 1017.2,558.8 1010.9,555.1 "/>
<polygon class="st0" points="995.3,388.6 1031.8,399.2 1033.4,392.4 1004.5,384 1013.7,355.2 1006.9,352.4 "/>
<polygon class="st0" points="996.2,238 1033.6,244.7 1034.5,237.8 1004.9,232.4 1010.9,202.8 1003.9,200.7 "/>
<polygon class="st0" points="994.4,640.1 1029.1,655.7 1031.6,649.1 1004.2,636.8 1017.2,609.5 1010.9,605.8 "/>
<polygon class="st0" points="995.1,438.8 1031.1,450.7 1033,444 1004.4,434.5 1014.6,406.1 1007.9,403 "/>
<polygon class="st0" points="119.7,87.2 157.6,90 157.8,83 127.7,80.8 130.7,50.7 123.5,49.4 "/>
<polygon class="st0" points="123.5,0 119.7,37.8 157.6,40.6 157.8,33.6 127.7,31.4 130.7,1.3 "/>
<polygon class="st0" points="117.4,489 153,502.1 155.1,495.5 126.8,485 138,457 131.4,453.7 "/>
<polygon class="st0" points="118.4,288.2 155.5,296.2 156.7,289.3 127.2,282.9 134.3,253.6 127.4,251.2 "/>
<polygon class="st0" points="116.9,690.8 151.6,706.3 154.1,699.8 126.7,687.5 139.7,660.2 133.4,656.5 "/>
<polygon class="st0" points="119.4,137.5 157.1,141.6 157.5,134.6 127.6,131.3 131.6,101.4 124.4,99.8 "/>
<polygon class="st0" points="116.9,538.7 151.6,554.3 154.1,547.8 126.7,535.4 139.7,508.1 133.4,504.4 "/>
<polygon class="st0" points="118.1,338.4 154.9,347.7 156.3,340.9 127.1,333.5 135.3,304.4 128.4,301.8 "/>
<polygon class="st0" points="119,187.7 156.6,193.1 157.3,186.2 127.5,181.9 132.5,152.1 125.4,150.2 "/>
<polygon class="st0" points="116.9,589.4 151.6,605 154.1,598.5 126.7,586.1 139.7,558.8 133.4,555.1 "/>
<polygon class="st0" points="117.8,388.6 154.3,399.2 155.9,392.4 127,384 136.2,355.2 129.4,352.4 "/>
<polygon class="st0" points="118.7,238 156.1,244.7 157,237.8 127.4,232.4 133.4,202.8 126.4,200.7 "/>
<polygon class="st0" points="116.9,640.1 151.6,655.7 154.1,649.1 126.7,636.8 139.7,609.5 133.4,605.8 "/>
<polygon class="st0" points="117.6,438.8 153.7,450.7 155.5,444 126.9,434.5 137.1,406.1 130.4,403 "/>
<polygon class="st0" points="587.5,87.2 625.3,90 625.5,83 595.5,80.8 598.4,50.7 591.2,49.4 "/>
<polygon class="st0" points="591.2,0 587.5,37.8 625.3,40.6 625.5,33.6 595.5,31.4 598.4,1.3 "/>
<polygon class="st0" points="585.1,489 620.7,502.1 622.8,495.5 594.6,485 605.7,457 599.2,453.7 "/>
<polygon class="st0" points="586.2,288.2 623.3,296.2 624.4,289.3 595,282.9 602.1,253.6 595.1,251.2 "/>
<polygon class="st0" points="584.7,690.8 619.3,706.3 621.9,699.8 594.4,687.5 607.5,660.2 601.2,656.5 "/>
<polygon class="st0" points="587.1,137.5 624.9,141.6 625.3,134.6 595.4,131.3 599.3,101.4 592.2,99.8 "/>
<polygon class="st0" points="584.7,538.7 619.3,554.3 621.9,547.8 594.4,535.4 607.5,508.1 601.2,504.4 "/>
<polygon class="st0" points="585.9,338.4 622.7,347.7 624.1,340.9 594.9,333.5 603,304.4 596.1,301.8 "/>
<polygon class="st0" points="586.8,187.7 624.3,193.1 625,186.2 595.2,181.9 600.3,152.1 593.2,150.2 "/>
<polygon class="st0" points="584.7,589.4 619.3,605 621.9,598.5 594.4,586.1 607.5,558.8 601.2,555.1 "/>
<polygon class="st0" points="585.6,388.6 622,399.2 623.7,392.4 594.8,384 603.9,355.2 597.1,352.4 "/>
<polygon class="st0" points="586.5,238 623.8,244.7 624.7,237.8 595.1,232.4 601.2,202.8 594.2,200.7 "/>
<polygon class="st0" points="584.7,640.1 619.3,655.7 621.9,649.1 594.4,636.8 607.5,609.5 601.2,605.8 "/>
<polygon class="st0" points="585.3,438.8 621.4,450.7 623.3,444 594.7,434.5 604.8,406.1 598.1,403 "/>
<polygon class="st0" points="353.6,87.2 391.4,90 391.7,83 361.6,80.8 364.6,50.7 357.4,49.4 "/>
<polygon class="st0" points="357.4,0 353.6,37.8 391.4,40.6 391.7,33.6 361.6,31.4 364.6,1.3 "/>
<polygon class="st0" points="351.2,489 386.9,502.1 389,495.5 360.7,485 371.8,457 365.3,453.7 "/>
<polygon class="st0" points="352.3,288.2 389.4,296.2 390.6,289.3 361.1,282.9 368.2,253.6 361.3,251.2 "/>
<polygon class="st0" points="350.8,690.8 385.4,706.3 388,699.8 360.6,687.5 373.6,660.2 367.3,656.5 "/>
<polygon class="st0" points="353.2,137.5 391,141.6 391.4,134.6 361.5,131.3 365.5,101.4 358.3,99.8 "/>
<polygon class="st0" points="350.8,538.7 385.4,554.3 388,547.8 360.6,535.4 373.6,508.1 367.3,504.4 "/>
<polygon class="st0" points="352,338.4 388.8,347.7 390.2,340.9 361,333.5 369.1,304.4 362.3,301.8 "/>
<polygon class="st0" points="352.9,187.7 390.5,193.1 391.2,186.2 361.4,181.9 366.4,152.1 359.3,150.2 "/>
<polygon class="st0" points="350.8,589.4 385.4,605 388,598.5 360.6,586.1 373.6,558.8 367.3,555.1 "/>
<polygon class="st0" points="351.7,388.6 388.2,399.2 389.8,392.4 360.9,384 370,355.2 363.3,352.4 "/>
<polygon class="st0" points="352.6,238 389.9,244.7 390.9,237.8 361.2,232.4 367.3,202.8 360.3,200.7 "/>
<polygon class="st0" points="350.8,640.1 385.4,655.7 388,649.1 360.6,636.8 373.6,609.5 367.3,605.8 "/>
<polygon class="st0" points="351.5,438.8 387.5,450.7 389.4,444 360.8,434.5 370.9,406.1 364.3,403 "/>
<polygon class="st0" points="879.8,87.2 917.7,90 917.9,83 887.8,80.8 890.8,50.7 883.6,49.4 "/>
<polygon class="st0" points="883.6,0 879.8,37.8 917.7,40.6 917.9,33.6 887.8,31.4 890.8,1.3 "/>
<polygon class="st0" points="877.5,489 913.1,502.1 915.2,495.5 886.9,485 898.1,457 891.5,453.7 "/>
<polygon class="st0" points="878.5,288.2 915.6,296.2 916.8,289.3 887.3,282.9 894.4,253.6 887.5,251.2 "/>
<polygon class="st0" points="877,690.8 911.6,706.3 914.2,699.8 886.8,687.5 899.8,660.2 893.5,656.5 "/>
<polygon class="st0" points="879.5,137.5 917.2,141.6 917.6,134.6 887.7,131.3 891.7,101.4 884.5,99.8 "/>
<polygon class="st0" points="877,538.7 911.6,554.3 914.2,547.8 886.8,535.4 899.8,508.1 893.5,504.4 "/>
<polygon class="st0" points="878.2,338.4 915,347.7 916.4,340.9 887.2,333.5 895.3,304.4 888.5,301.8 "/>
<polygon class="st0" points="879.1,187.7 916.7,193.1 917.4,186.2 887.6,181.9 892.6,152.1 885.5,150.2 "/>
<polygon class="st0" points="877,589.4 911.6,605 914.2,598.5 886.8,586.1 899.8,558.8 893.5,555.1 "/>
<polygon class="st0" points="877.9,388.6 914.4,399.2 916,392.4 887.1,384 896.3,355.2 889.5,352.4 "/>
<polygon class="st0" points="878.8,238 916.2,244.7 917.1,237.8 887.5,232.4 893.5,202.8 886.5,200.7 "/>
<polygon class="st0" points="877,640.1 911.6,655.7 914.2,649.1 886.8,636.8 899.8,609.5 893.5,605.8 "/>
<polygon class="st0" points="877.7,438.8 913.7,450.7 915.6,444 887,434.5 897.2,406.1 890.5,403 "/>
<polygon class="st0" points="1055.7,87.2 1093.5,90 1093.7,83 1063.7,80.8 1066.6,50.7 1059.4,49.4 "/>
<polygon class="st0" points="1059.4,0 1055.7,37.8 1093.5,40.6 1093.7,33.6 1063.7,31.4 1066.6,1.3 "/>
<polygon class="st0" points="1053.3,489 1088.9,502.1 1091.1,495.5 1062.8,485 1073.9,457 1067.4,453.7 "/>
<polygon class="st0" points="1054.4,288.2 1091.5,296.2 1092.6,289.3 1063.2,282.9 1070.3,253.6 1063.4,251.2 "/>
<polygon class="st0" points="1052.9,690.8 1087.5,706.3 1090.1,699.8 1062.6,687.5 1075.7,660.2 1069.4,656.5 "/>
<polygon class="st0" points="1055.3,137.5 1093.1,141.6 1093.5,134.6 1063.6,131.3 1067.6,101.4 1060.4,99.8 "/>
<polygon class="st0" points="1052.9,538.7 1087.5,554.3 1090.1,547.8 1062.6,535.4 1075.7,508.1 1069.4,504.4 "/>
<polygon class="st0" points="1054.1,338.4 1090.9,347.7 1092.3,340.9 1063.1,333.5 1071.2,304.4 1064.4,301.8 "/>
<polygon class="st0" points="1055,187.7 1092.6,193.1 1093.3,186.2 1063.5,181.9 1068.5,152.1 1061.4,150.2 "/>
<polygon class="st0" points="1052.9,589.4 1087.5,605 1090.1,598.5 1062.6,586.1 1075.7,558.8 1069.4,555.1 "/>
<polygon class="st0" points="1053.8,388.6 1090.3,399.2 1091.9,392.4 1063,384 1072.1,355.2 1065.4,352.4 "/>
<polygon class="st0" points="1054.7,238 1092,244.7 1093,237.8 1063.3,232.4 1069.4,202.8 1062.4,200.7 "/>
<polygon class="st0" points="1052.9,640.1 1087.5,655.7 1090.1,649.1 1062.6,636.8 1075.7,609.5 1069.4,605.8 "/>
<polygon class="st0" points="1053.6,438.8 1089.6,450.7 1091.5,444 1062.9,434.5 1073,406.1 1066.4,403 "/>
<polygon class="st0" points="178.2,87.2 216,90 216.2,83 186.2,80.8 189.2,50.7 182,49.4 "/>
<polygon class="st0" points="182,0 178.2,37.8 216,40.6 216.2,33.6 186.2,31.4 189.2,1.3 "/>
<polygon class="st0" points="175.8,489 211.4,502.1 213.6,495.5 185.3,485 196.4,457 189.9,453.7 "/>
<polygon class="st0" points="176.9,288.2 214,296.2 215.1,289.3 185.7,282.9 192.8,253.6 185.9,251.2 "/>
<polygon class="st0" points="175.4,690.8 210,706.3 212.6,699.8 185.1,687.5 198.2,660.2 191.9,656.5 "/>
<polygon class="st0" points="177.8,137.5 215.6,141.6 216,134.6 186.1,131.3 190.1,101.4 182.9,99.8 "/>
<polygon class="st0" points="175.4,538.7 210,554.3 212.6,547.8 185.2,535.4 198.2,508.1 191.9,504.4 "/>
<polygon class="st0" points="176.6,338.4 213.4,347.7 214.8,340.9 185.6,333.5 193.7,304.4 186.9,301.8 "/>
<polygon class="st0" points="177.5,187.7 215.1,193.1 215.8,186.2 186,181.9 191,152.1 183.9,150.2 "/>
<polygon class="st0" points="175.4,589.4 210,605 212.6,598.5 185.2,586.1 198.2,558.8 191.9,555.1 "/>
<polygon class="st0" points="176.3,388.6 212.8,399.2 214.4,392.4 185.5,384 194.6,355.2 187.9,352.4 "/>
<polygon class="st0" points="177.2,238 214.5,244.7 215.5,237.8 185.8,232.4 191.9,202.8 184.9,200.7 "/>
<polygon class="st0" points="175.4,640.1 210,655.7 212.6,649.1 185.2,636.8 198.2,609.5 191.9,605.8 "/>
<polygon class="st0" points="176.1,438.8 212.1,450.7 214,444 185.4,434.5 195.5,406.1 188.9,403 "/>
<polygon class="st0" points="645.9,87.2 683.8,90 684,83 654,80.8 656.9,50.7 649.7,49.4 "/>
<polygon class="st0" points="649.7,0 645.9,37.8 683.8,40.6 684,33.6 654,31.4 656.9,1.3 "/>
<polygon class="st0" points="643.6,489 679.2,502.1 681.3,495.5 653.1,485 664.2,457 657.6,453.7 "/>
<polygon class="st0" points="644.6,288.2 681.7,296.2 682.9,289.3 653.5,282.9 660.6,253.6 653.6,251.2 "/>
<polygon class="st0" points="643.2,690.8 677.8,706.3 680.4,699.8 652.9,687.5 665.9,660.2 659.6,656.5 "/>
<polygon class="st0" points="645.6,137.5 683.3,141.6 683.8,134.6 653.8,131.3 657.8,101.4 650.7,99.8 "/>
<polygon class="st0" points="643.2,538.7 677.8,554.3 680.4,547.8 652.9,535.4 665.9,508.1 659.6,504.4 "/>
<polygon class="st0" points="644.3,338.4 681.1,347.7 682.5,340.9 653.4,333.5 661.5,304.4 654.6,301.8 "/>
<polygon class="st0" points="645.3,187.7 682.8,193.1 683.5,186.2 653.7,181.9 658.7,152.1 651.6,150.2 "/>
<polygon class="st0" points="643.2,589.4 677.8,605 680.4,598.5 652.9,586.1 665.9,558.8 659.6,555.1 "/>
<polygon class="st0" points="644.1,388.6 680.5,399.2 682.2,392.4 653.3,384 662.4,355.2 655.6,352.4 "/>
<polygon class="st0" points="644.9,238 682.3,244.7 683.2,237.8 653.6,232.4 659.6,202.8 652.6,200.7 "/>
<polygon class="st0" points="643.2,640.1 677.8,655.7 680.4,649.1 652.9,636.8 665.9,609.5 659.6,605.8 "/>
<polygon class="st0" points="643.8,438.8 679.9,450.7 681.8,444 653.2,434.5 663.3,406.1 656.6,403 "/>
<polygon class="st0" points="412.1,87.2 449.9,90 450.1,83 420.1,80.8 423,50.7 415.8,49.4 "/>
<polygon class="st0" points="415.8,0 412.1,37.8 449.9,40.6 450.1,33.6 420.1,31.4 423,1.3 "/>
<polygon class="st0" points="409.7,489 445.3,502.1 447.4,495.5 419.2,485 430.3,457 423.7,453.7 "/>
<polygon class="st0" points="410.8,288.2 447.8,296.2 449,289.3 419.6,282.9 426.7,253.6 419.7,251.2 "/>
<polygon class="st0" points="409.3,690.8 443.9,706.3 446.5,699.8 419,687.5 432.1,660.2 425.8,656.5 "/>
<polygon class="st0" points="411.7,137.5 449.4,141.6 449.9,134.6 420,131.3 423.9,101.4 416.8,99.8 "/>
<polygon class="st0" points="409.3,538.7 443.9,554.3 446.5,547.8 419,535.4 432.1,508.1 425.8,504.4 "/>
<polygon class="st0" points="410.5,338.4 447.3,347.7 448.7,340.9 419.5,333.5 427.6,304.4 420.7,301.8 "/>
<polygon class="st0" points="411.4,187.7 448.9,193.1 449.6,186.2 419.8,181.9 424.9,152.1 417.8,150.2 "/>
<polygon class="st0" points="409.3,589.4 443.9,605 446.5,598.5 419,586.1 432.1,558.8 425.8,555.1 "/>
<polygon class="st0" points="410.2,388.6 446.6,399.2 448.3,392.4 419.4,384 428.5,355.2 421.7,352.4 "/>
<polygon class="st0" points="411.1,238 448.4,244.7 449.3,237.8 419.7,232.4 425.8,202.8 418.8,200.7 "/>
<polygon class="st0" points="409.3,640.1 443.9,655.7 446.5,649.1 419,636.8 432.1,609.5 425.8,605.8 "/>
<polygon class="st0" points="409.9,438.8 446,450.7 447.9,444 419.3,434.5 429.4,406.1 422.7,403 "/>
<polygon class="st0" points="762.9,87.2 800.7,90 800.9,83 770.9,80.8 773.8,50.7 766.6,49.4 "/>
<polygon class="st0" points="766.6,0 762.9,37.8 800.7,40.6 800.9,33.6 770.9,31.4 773.8,1.3 "/>
<polygon class="st0" points="760.5,489 796.1,502.1 798.3,495.5 770,485 781.1,457 774.6,453.7 "/>
<polygon class="st0" points="761.6,288.2 798.7,296.2 799.8,289.3 770.4,282.9 777.5,253.6 770.6,251.2 "/>
<polygon class="st0" points="760.1,690.8 794.7,706.3 797.3,699.8 769.8,687.5 782.9,660.2 776.6,656.5 "/>
<polygon class="st0" points="762.5,137.5 800.3,141.6 800.7,134.6 770.8,131.3 774.8,101.4 767.6,99.8 "/>
<polygon class="st0" points="760.1,538.7 794.7,554.3 797.3,547.8 769.8,535.4 782.9,508.1 776.6,504.4 "/>
<polygon class="st0" points="761.3,338.4 798.1,347.7 799.5,340.9 770.3,333.5 778.4,304.4 771.6,301.8 "/>
<polygon class="st0" points="762.2,187.7 799.8,193.1 800.4,186.2 770.6,181.9 775.7,152.1 768.6,150.2 "/>
<polygon class="st0" points="760.1,589.4 794.7,605 797.3,598.5 769.8,586.1 782.9,558.8 776.6,555.1 "/>
<polygon class="st0" points="761,388.6 797.5,399.2 799.1,392.4 770.2,384 779.3,355.2 772.6,352.4 "/>
<polygon class="st0" points="761.9,238 799.2,244.7 800.2,237.8 770.5,232.4 776.6,202.8 769.6,200.7 "/>
<polygon class="st0" points="760.1,640.1 794.7,655.7 797.3,649.1 769.8,636.8 782.9,609.5 776.6,605.8 "/>
<polygon class="st0" points="760.7,438.8 796.8,450.7 798.7,444 770.1,434.5 780.2,406.1 773.6,403 "/>
<polygon class="st0" points="61.3,87.2 99.1,90 99.3,83 69.3,80.8 72.2,50.7 65,49.4 "/>
<polygon class="st0" points="65,0 61.3,37.8 99.1,40.6 99.3,33.6 69.3,31.4 72.2,1.3 "/>
<polygon class="st0" points="58.9,489 94.5,502.1 96.6,495.5 68.4,485 79.5,457 72.9,453.7 "/>
<polygon class="st0" points="59.9,288.2 97,296.2 98.2,289.3 68.8,282.9 75.9,253.6 68.9,251.2 "/>
<polygon class="st0" points="58.5,690.8 93.1,706.3 95.7,699.8 68.2,687.5 81.3,660.2 74.9,656.5 "/>
<polygon class="st0" points="60.9,137.5 98.6,141.6 99.1,134.6 69.1,131.3 73.1,101.4 66,99.8 "/>
<polygon class="st0" points="58.5,538.7 93.1,554.3 95.7,547.8 68.2,535.4 81.3,508.1 74.9,504.4 "/>
<polygon class="st0" points="59.7,338.4 96.4,347.7 97.9,340.9 68.7,333.5 76.8,304.4 69.9,301.8 "/>
<polygon class="st0" points="60.6,187.7 98.1,193.1 98.8,186.2 69,181.9 74,152.1 67,150.2 "/>
<polygon class="st0" points="58.5,589.4 93.1,605 95.7,598.5 68.2,586.1 81.3,558.8 74.9,555.1 "/>
<polygon class="st0" points="59.4,388.6 95.8,399.2 97.5,392.4 68.6,384 77.7,355.2 70.9,352.4 "/>
<polygon class="st0" points="60.2,238 97.6,244.7 98.5,237.8 68.9,232.4 75,202.8 67.9,200.7 "/>
<polygon class="st0" points="58.5,640.1 93.1,655.7 95.7,649.1 68.2,636.8 81.3,609.5 74.9,605.8 "/>
<polygon class="st0" points="59.1,438.8 95.2,450.7 97.1,444 68.5,434.5 78.6,406.1 71.9,403 "/>
<polygon class="st0" points="529,87.2 566.9,90 567.1,83 537,80.8 540,50.7 532.8,49.4 "/>
<polygon class="st0" points="532.8,0 529,37.8 566.9,40.6 567.1,33.6 537,31.4 540,1.3 "/>
<polygon class="st0" points="526.6,489 562.3,502.1 564.4,495.5 536.1,485 547.2,457 540.7,453.7 "/>
<polygon class="st0" points="527.7,288.2 564.8,296.2 566,289.3 536.5,282.9 543.6,253.6 536.7,251.2 "/>
<polygon class="st0" points="526.2,690.8 560.8,706.3 563.4,699.8 536,687.5 549,660.2 542.7,656.5 "/>
<polygon class="st0" points="528.6,137.5 566.4,141.6 566.8,134.6 536.9,131.3 540.9,101.4 533.7,99.8 "/>
<polygon class="st0" points="526.2,538.7 560.8,554.3 563.4,547.8 536,535.4 549,508.1 542.7,504.4 "/>
<polygon class="st0" points="527.4,338.4 564.2,347.7 565.6,340.9 536.4,333.5 544.5,304.4 537.7,301.8 "/>
<polygon class="st0" points="528.3,187.7 565.9,193.1 566.6,186.2 536.8,181.9 541.8,152.1 534.7,150.2 "/>
<polygon class="st0" points="526.2,589.4 560.8,605 563.4,598.5 536,586.1 549,558.8 542.7,555.1 "/>
<polygon class="st0" points="527.1,388.6 563.6,399.2 565.2,392.4 536.3,384 545.4,355.2 538.7,352.4 "/>
<polygon class="st0" points="528,238 565.3,244.7 566.3,237.8 536.6,232.4 542.7,202.8 535.7,200.7 "/>
<polygon class="st0" points="526.2,640.1 560.8,655.7 563.4,649.1 536,636.8 549,609.5 542.7,605.8 "/>
<polygon class="st0" points="526.9,438.8 562.9,450.7 564.8,444 536.2,434.5 546.3,406.1 539.7,403 "/>
<polygon class="st0" points="295.1,87.2 333,90 333.2,83 303.1,80.8 306.1,50.7 298.9,49.4 "/>
<polygon class="st0" points="298.9,0 295.1,37.8 333,40.6 333.2,33.6 303.1,31.4 306.1,1.3 "/>
<polygon class="st0" points="292.8,489 328.4,502.1 330.5,495.5 302.3,485 313.4,457 306.8,453.7 "/>
<polygon class="st0" points="293.8,288.2 330.9,296.2 332.1,289.3 302.7,282.9 309.8,253.6 302.8,251.2 "/>
<polygon class="st0" points="292.3,690.8 327,706.3 329.5,699.8 302.1,687.5 315.1,660.2 308.8,656.5 "/>
<polygon class="st0" points="294.8,137.5 332.5,141.6 333,134.6 303,131.3 307,101.4 299.9,99.8 "/>
<polygon class="st0" points="292.3,538.7 327,554.3 329.5,547.8 302.1,535.4 315.1,508.1 308.8,504.4 "/>
<polygon class="st0" points="293.5,338.4 330.3,347.7 331.7,340.9 302.5,333.5 310.7,304.4 303.8,301.8 "/>
<polygon class="st0" points="294.4,187.7 332,193.1 332.7,186.2 302.9,181.9 307.9,152.1 300.8,150.2 "/>
<polygon class="st0" points="292.3,589.4 327,605 329.5,598.5 302.1,586.1 315.1,558.8 308.8,555.1 "/>
<polygon class="st0" points="293.3,388.6 329.7,399.2 331.4,392.4 302.4,384 311.6,355.2 304.8,352.4 "/>
<polygon class="st0" points="294.1,238 331.5,244.7 332.4,237.8 302.8,232.4 308.8,202.8 301.8,200.7 "/>
<polygon class="st0" points="292.3,640.1 327,655.7 329.5,649.1 302.1,636.8 315.1,609.5 308.8,605.8 "/>
<polygon class="st0" points="293,438.8 329.1,450.7 330.9,444 302.3,434.5 312.5,406.1 305.8,403 "/>
</svg>
