<?xml version="1.0" encoding="utf-8"?>
<!-- Generator: Adobe Illustrator 22.1.0, SVG Export Plug-In . SVG Version: 6.00 Build 0)  -->
<svg version="1.1" id="Layer_1" xmlns="http://www.w3.org/2000/svg" xmlns:xlink="http://www.w3.org/1999/xlink" x="0px" y="0px"
	 viewBox="0 0 1151.5 738" style="enable-background:new 0 0 1151.5 738;" xml:space="preserve">
<style type="text/css">
	.st0{clip-path:url(#SVGID_2_);fill:#FFFFFF;}
</style>
<g>
	<defs>
		<rect id="SVGID_1_" width="1152.2" height="738"/>
	</defs>
	<clipPath id="SVGID_2_">
		<use xlink:href="#SVGID_1_"  style="overflow:visible;"/>
	</clipPath>
	<path class="st0" d="M576.1,356.6c6.8,0,12.4,5.6,12.4,12.4s-5.6,12.4-12.4,12.4c-6.8,0-12.4-5.6-12.4-12.4
		S569.3,356.6,576.1,356.6 M576.1,389c11,0,20-9,20-20c0-11-9-20-20-20c-11,0-20,9-20,20C556.1,380,565.1,389,576.1,389"/>
	<path class="st0" d="M576.1,335.1c18.7,0,33.9,15.2,33.9,33.9c0,18.7-15.2,33.9-33.9,33.9c-18.7,0-33.9-15.2-33.9-33.9
		C542.2,350.3,557.4,335.1,576.1,335.1 M576.1,410.5c22.9,0,41.5-18.6,41.5-41.5c0-22.9-18.6-41.5-41.5-41.5
		c-22.9,0-41.5,18.6-41.5,41.5C534.6,391.9,553.2,410.5,576.1,410.5"/>
	<path class="st0" d="M576.1,313.6c30.5,0,55.4,24.8,55.4,55.4s-24.9,55.4-55.4,55.4c-30.5,0-55.4-24.8-55.4-55.4
		S545.6,313.6,576.1,313.6 M576.1,432c34.7,0,63-28.2,63-63s-28.2-63-63-63c-34.7,0-63,28.2-63,63S541.4,432,576.1,432"/>
	<path class="st0" d="M576.1,292.1c42.4,0,76.9,34.5,76.9,76.9s-34.5,76.9-76.9,76.9c-42.4,0-76.9-34.5-76.9-76.9
		S533.7,292.1,576.1,292.1 M576.1,453.5c46.6,0,84.5-37.9,84.5-84.5c0-46.6-37.9-84.5-84.5-84.5c-46.6,0-84.5,37.9-84.5,84.5
		C491.6,415.6,529.5,453.5,576.1,453.5"/>
	<path class="st0" d="M576.1,270.6c54.2,0,98.4,44.1,98.4,98.4s-44.1,98.4-98.4,98.4c-54.2,0-98.4-44.1-98.4-98.4
		S521.9,270.6,576.1,270.6 M576.1,475c58.4,0,105.9-47.5,105.9-105.9c0-58.4-47.5-106-105.9-106c-58.4,0-106,47.5-106,106
		C470.2,427.4,517.7,475,576.1,475"/>
	<path class="st0" d="M576.1,249.1c66.1,0,119.9,53.8,119.9,119.9s-53.8,119.9-119.9,119.9S456.2,435.1,456.2,369
		S510,249.1,576.1,249.1 M576.1,496.4c70.3,0,127.4-57.2,127.4-127.4s-57.2-127.4-127.4-127.4S448.7,298.7,448.7,369
		S505.8,496.4,576.1,496.4"/>
	<path class="st0" d="M576.1,227.6c77.9,0,141.4,63.4,141.4,141.4s-63.4,141.4-141.4,141.4S434.7,446.9,434.7,369
		S498.2,227.6,576.1,227.6 M576.1,517.9c82.1,0,148.9-66.8,148.9-148.9c0-82.1-66.8-148.9-148.9-148.9S427.2,286.9,427.2,369
		C427.2,451.1,494,517.9,576.1,517.9"/>
	<path class="st0" d="M576.1,206.1c89.8,0,162.9,73.1,162.9,162.9s-73.1,162.9-162.9,162.9c-89.8,0-162.9-73.1-162.9-162.9
		S486.3,206.1,576.1,206.1 M576.1,539.4c94,0,170.4-76.5,170.4-170.4s-76.5-170.4-170.4-170.4c-94,0-170.4,76.5-170.4,170.4
		S482.1,539.4,576.1,539.4"/>
	<path class="st0" d="M576.1,184.7c101.6,0,184.3,82.7,184.3,184.3c0,101.6-82.7,184.3-184.3,184.3S391.8,470.6,391.8,369
		C391.8,267.4,474.5,184.7,576.1,184.7 M576.1,560.9C681.9,560.9,768,474.8,768,369s-86.1-191.9-191.9-191.9S384.2,263.2,384.2,369
		S470.3,560.9,576.1,560.9"/>
	<path class="st0" d="M576.1,163.2c113.5,0,205.8,92.3,205.8,205.8s-92.3,205.8-205.8,205.8S370.3,482.5,370.3,369
		S462.6,163.2,576.1,163.2 M576.1,582.4c117.7,0,213.4-95.7,213.4-213.4s-95.7-213.4-213.4-213.4S362.7,251.3,362.7,369
		S458.4,582.4,576.1,582.4"/>
	<path class="st0" d="M576.1,141.7c125.3,0,227.3,102,227.3,227.3s-102,227.3-227.3,227.3S348.8,494.4,348.8,369
		S450.8,141.7,576.1,141.7 M576.1,603.9C705.6,603.9,811,498.5,811,369S705.6,134.1,576.1,134.1S341.2,239.5,341.2,369
		S446.6,603.9,576.1,603.9"/>
	<path class="st0" d="M576.1,120.2c137.2,0,248.8,111.6,248.8,248.8S713.3,617.8,576.1,617.8S327.3,506.2,327.3,369
		S438.9,120.2,576.1,120.2 M576.1,625.4c141.4,0,256.4-115,256.4-256.4s-115-256.4-256.4-256.4S319.7,227.6,319.7,369
		S434.7,625.4,576.1,625.4"/>
	<path class="st0" d="M576.1,98.7c149.1,0,270.3,121.3,270.3,270.3c0,149.1-121.3,270.3-270.3,270.3
		c-149.1,0-270.3-121.3-270.3-270.3C305.8,219.9,427.1,98.7,576.1,98.7 M576.1,646.9C729.3,646.9,854,522.2,854,369
		c0-153.2-124.7-277.9-277.9-277.9S298.2,215.8,298.2,369C298.2,522.2,422.9,646.9,576.1,646.9"/>
	<path class="st0" d="M576.1,77.2C737,77.2,867.9,208.1,867.9,369c0,160.9-130.9,291.8-291.8,291.8S284.3,529.9,284.3,369
		C284.3,208.1,415.2,77.2,576.1,77.2 M576.1,668.4c165.1,0,299.4-134.3,299.4-299.4c0-165.1-134.3-299.4-299.4-299.4
		S276.7,203.9,276.7,369C276.7,534.1,411,668.4,576.1,668.4"/>
	<path class="st0" d="M576.1,55.7c172.8,0,313.3,140.5,313.3,313.3S748.9,682.3,576.1,682.3S262.8,541.8,262.8,369
		S403.4,55.7,576.1,55.7 M576.1,689.9C753,689.9,897,545.9,897,369S753,48.1,576.1,48.1S255.2,192.1,255.2,369
		S399.2,689.9,576.1,689.9"/>
	<path class="st0" d="M576.1,34.2c89.4,0,173.5,34.8,236.7,98.1c63.2,63.2,98.1,147.3,98.1,236.7s-34.8,173.5-98.1,236.7
		c-63.2,63.2-147.3,98.1-236.7,98.1S402.6,669,339.4,605.7c-63.2-63.2-98.1-147.3-98.1-236.7s34.8-173.5,98.1-236.7
		C402.6,69,486.7,34.2,576.1,34.2 M576.1,711.4c91.4,0,177.4-35.6,242.1-100.3c64.7-64.7,100.3-150.6,100.3-242.1
		s-35.6-177.4-100.3-242.1C753.5,62.3,667.6,26.6,576.1,26.6S398.7,62.3,334,126.9C269.4,191.6,233.7,277.6,233.7,369
		S269.4,546.4,334,611.1C398.7,675.7,484.7,711.4,576.1,711.4"/>
	<path class="st0" d="M576.1,12.7c95.2,0,184.6,37.1,251.9,104.4c67.3,67.3,104.4,156.8,104.4,251.9S895.3,553.6,828,620.9
		c-67.3,67.3-156.8,104.4-251.9,104.4s-184.6-37.1-251.9-104.4C256.9,553.6,219.8,464.2,219.8,369s37.1-184.6,104.4-251.9
		C391.5,49.8,480.9,12.7,576.1,12.7 M576.1,732.9c97.2,0,188.6-37.8,257.3-106.6C902.1,557.6,940,466.2,940,369
		c0-97.2-37.8-188.6-106.6-257.3C764.7,43,673.3,5.1,576.1,5.1S387.5,43,318.8,111.7C250.1,180.4,212.3,271.8,212.3,369
		c0,97.2,37.8,188.6,106.6,257.3C387.5,695,478.9,732.9,576.1,732.9"/>
	<path class="st0" d="M576.1-8.8c100.9,0,195.8,39.3,267.1,110.6c71.4,71.4,110.6,166.2,110.6,267.1c0,100.9-39.3,195.8-110.6,267.1
		C771.9,707.5,677,746.8,576.1,746.8S380.3,707.5,309,636.1C237.6,564.8,198.3,469.9,198.3,369c0-100.9,39.3-195.8,110.6-267.1
		C380.3,30.5,475.2-8.8,576.1-8.8 M576.1,754.3c102.9,0,199.7-40.1,272.5-112.9c72.8-72.8,112.9-169.6,112.9-272.5
		S921.4,169.3,848.6,96.5C775.8,23.7,679-16.3,576.1-16.3S376.4,23.7,303.6,96.5C230.8,169.3,190.8,266.1,190.8,369
		c0,102.9,40.1,199.7,112.9,272.5C376.4,714.3,473.2,754.3,576.1,754.3"/>
	<path class="st0" d="M576.1-30.3c106.6,0,206.9,41.5,282.3,116.9c75.4,75.4,116.9,175.7,116.9,282.3
		c0,106.6-41.5,206.9-116.9,282.3C783,726.7,682.8,768.3,576.1,768.3s-206.9-41.5-282.3-116.9C218.4,575.9,176.8,475.6,176.8,369
		c0-106.6,41.5-206.9,116.9-282.3C369.2,11.3,469.5-30.3,576.1-30.3 M576.1,775.8c108.7,0,210.8-42.3,287.7-119.2
		s119.2-179,119.2-287.7c0-108.7-42.3-210.8-119.2-287.7S684.8-37.8,576.1-37.8S365.3,4.5,288.4,81.3S169.3,260.3,169.3,369
		c0,108.7,42.3,210.8,119.2,287.7S467.4,775.8,576.1,775.8"/>
	<path class="st0" d="M576.1-51.8c112.4,0,218,43.8,297.5,123.2c79.5,79.5,123.2,185.1,123.2,297.5s-43.8,218-123.2,297.5
		C794.2,746,688.5,789.8,576.1,789.8S358.1,746,278.6,666.5C199.1,587.1,155.3,481.4,155.3,369s43.8-218.1,123.2-297.5
		C358.1-8,463.7-51.8,576.1-51.8 M576.1,797.3c114.4,0,222-44.6,302.9-125.5s125.5-188.5,125.5-302.9S959.9,147,879,66.1
		S690.5-59.3,576.1-59.3s-222,44.6-302.9,125.5S147.8,254.6,147.8,369s44.6,222,125.5,302.9S461.7,797.3,576.1,797.3"/>
	<path class="st0" d="M576.1-73.3c118.1,0,229.2,46,312.7,129.5c83.5,83.5,129.5,194.6,129.5,312.7c0,118.1-46,229.2-129.5,312.7
		c-83.5,83.5-194.6,129.5-312.7,129.5s-229.2-46-312.7-129.5C179.9,598.2,133.9,487.1,133.9,369c0-118.1,46-229.2,129.5-312.7
		C346.9-27.2,458-73.3,576.1-73.3 M576.1,818.8c120.2,0,233.1-46.8,318.1-131.8c85-85,131.7-197.9,131.7-318.1
		c0-120.2-46.8-233.1-131.7-318.1c-85-85-197.9-131.8-318.1-131.8S343-34,258,50.9c-85,85-131.8,197.9-131.8,318.1
		c0,120.2,46.8,233.1,131.8,318.1C343,772,456,818.8,576.1,818.8"/>
	<path class="st0" d="M576.1-94.7C700-94.7,816.4-46.5,904,41.1c87.6,87.6,135.8,204,135.8,327.9S991.6,609.3,904,696.9
		c-87.6,87.6-204,135.8-327.9,135.8s-240.3-48.2-327.9-135.8c-87.6-87.6-135.8-204-135.8-327.9s48.2-240.3,135.8-327.9
		C335.8-46.5,452.2-94.7,576.1-94.7 M576.1,840.3c125.9,0,244.2-49,333.3-138c89-89,138-207.4,138-333.3s-49-244.3-138-333.3
		c-89-89-207.4-138-333.3-138s-244.2,49-333.3,138c-89,89-138,207.4-138,333.3s49,244.2,138,333.3
		C331.9,791.3,450.2,840.3,576.1,840.3"/>
	<path class="st0" d="M576.1-116.2c129.6,0,251.5,50.5,343.1,142.1s142.1,213.5,142.1,343.1c0,129.6-50.5,251.5-142.1,343.1
		S705.7,854.2,576.1,854.2S324.6,803.8,233,712.1S90.9,498.6,90.9,369c0-129.6,50.5-251.5,142.1-343.1S446.5-116.2,576.1-116.2
		 M576.1,861.8c131.6,0,255.4-51.3,348.5-144.3s144.3-216.8,144.3-348.5c0-131.6-51.3-255.4-144.3-348.5
		c-93.1-93.1-216.8-144.3-348.5-144.3S320.7-72.5,227.6,20.5C134.6,113.6,83.3,237.4,83.3,369c0,131.6,51.3,255.4,144.3,348.5
		S444.5,861.8,576.1,861.8"/>
	<path class="st0" d="M576.1-137.7c135.4,0,262.6,52.7,358.3,148.4s148.4,223,148.4,358.3c0,135.4-52.7,262.6-148.4,358.3
		s-223,148.4-358.3,148.4S313.5,823,217.8,727.3S69.4,504.4,69.4,369c0-135.4,52.7-262.6,148.4-358.3S440.8-137.7,576.1-137.7
		 M576.1,883.3c137.4,0,266.5-53.5,363.7-150.6s150.6-226.3,150.6-363.7c0-137.4-53.5-266.5-150.6-363.7S713.5-145.3,576.1-145.3
		S309.6-91.8,212.4,5.3C115.3,102.5,61.8,231.6,61.8,369c0,137.4,53.5,266.5,150.6,363.7C309.6,829.8,438.7,883.3,576.1,883.3"/>
	<path class="st0" d="M576.1-159.2c141.1,0,273.7,54.9,373.5,154.7c99.8,99.8,154.7,232.4,154.7,373.5s-54.9,273.7-154.7,373.5
		c-99.8,99.8-232.4,154.7-373.5,154.7s-273.7-54.9-373.5-154.7C102.8,642.7,47.9,510.1,47.9,369S102.8,95.3,202.6-4.5
		C302.4-104.3,435-159.2,576.1-159.2 M576.1,904.8c72.3,0,142.5-14.2,208.6-42.1c63.8-27,121.1-65.6,170.3-114.8
		c49.2-49.2,87.8-106.5,114.8-170.3c27.9-66.1,42.1-136.2,42.1-208.6s-14.2-142.5-42.1-208.6c-27-63.8-65.6-121.1-114.8-170.3
		c-49.2-49.2-106.5-87.8-170.3-114.8c-66.1-27.9-136.2-42.1-208.6-42.1s-142.5,14.2-208.6,42.1c-63.8,27-121.1,65.6-170.3,114.8
		C148,39.3,109.4,96.6,82.4,160.4C54.5,226.5,40.3,296.7,40.3,369s14.2,142.5,42.1,208.6c27,63.8,65.6,121.1,114.8,170.3
		c49.2,49.2,106.5,87.8,170.3,114.8C433.6,890.6,503.8,904.8,576.1,904.8"/>
	<path class="st0" d="M576.1-180.7c74.2,0,146.2,14.5,214,43.2c65.5,27.7,124.2,67.3,174.7,117.8c50.5,50.5,90.1,109.3,117.8,174.7
		c28.7,67.8,43.2,139.8,43.2,214c0,74.2-14.5,146.2-43.2,214c-27.7,65.5-67.3,124.2-117.8,174.7c-50.5,50.5-109.3,90.1-174.7,117.8
		c-67.8,28.7-139.8,43.2-214,43.2s-146.2-14.5-214-43.2c-65.5-27.7-124.2-67.3-174.7-117.8C136.9,707.2,97.3,648.4,69.6,583
		c-28.7-67.8-43.2-139.8-43.2-214c0-74.2,14.5-146.2,43.2-214C97.3,89.6,136.9,30.8,187.4-19.7c50.5-50.5,109.3-90.1,174.7-117.8
		C429.9-166.2,501.9-180.7,576.1-180.7 M576.1,926.3c75.2,0,148.2-14.7,216.9-43.8c66.4-28.1,126-68.2,177.1-119.4
		s91.4-110.8,119.4-177.1c29.1-68.7,43.8-141.7,43.8-216.9c0-75.2-14.7-148.2-43.8-216.9c-28.1-66.4-68.2-126-119.4-177.1
		C919-76.2,859.4-116.4,793-144.5c-68.7-29.1-141.7-43.8-216.9-43.8s-148.2,14.7-216.9,43.8c-66.4,28.1-126,68.2-177.1,119.4
		C130.9,26.1,90.7,85.7,62.6,152.1C33.6,220.8,18.8,293.8,18.8,369c0,75.2,14.7,148.2,43.8,216.9c28.1,66.4,68.2,126,119.4,177.1
		s110.8,91.4,177.1,119.4C427.9,911.5,500.9,926.3,576.1,926.3"/>
	<path class="st0" d="M576.1-202.2c77.1,0,151.9,15.1,222.3,44.9c68,28.8,129.1,70,181.6,122.4c52.5,52.5,93.6,113.5,122.4,181.6
		c29.8,70.4,44.9,145.2,44.9,222.3s-15.1,151.9-44.9,222.3c-28.8,68-70,129.1-122.4,181.6c-52.5,52.5-113.5,93.6-181.6,122.4
		c-70.4,29.8-145.2,44.9-222.3,44.9s-151.9-15.1-222.3-44.9c-68-28.8-129.1-70-181.6-122.4c-52.5-52.5-93.6-113.5-122.4-181.6
		C20,520.9,4.9,446.1,4.9,369S20,217.1,49.8,146.7c28.8-68,70-129.1,122.4-181.6c52.5-52.5,113.5-93.6,181.6-122.4
		C424.2-187.1,499-202.2,576.1-202.2 M576.1,947.8c78.1,0,153.9-15.3,225.3-45.5c68.9-29.2,130.8-70.9,184-124
		c53.2-53.2,94.9-115,124-184c30.2-71.4,45.5-147.2,45.5-225.3c0-78.1-15.3-153.9-45.5-225.3c-29.2-68.9-70.9-130.8-124-184
		c-53.2-53.2-115-94.9-184-124c-71.4-30.2-147.2-45.5-225.3-45.5s-153.9,15.3-225.3,45.5c-68.9,29.2-130.8,70.9-184,124
		c-53.2,53.2-94.9,115-124,184C12.6,215.1-2.7,290.9-2.7,369c0,78.1,15.3,153.9,45.5,225.3c29.2,68.9,70.9,130.8,124,184
		c53.2,53.2,115,94.9,184,124C422.2,932.5,498,947.8,576.1,947.8"/>
	<path class="st0" d="M576.1-223.7c80,0,157.6,15.7,230.7,46.6c70.6,29.9,134,72.6,188.4,127c54.4,54.4,97.2,117.8,127,188.4
		c30.9,73.1,46.6,150.7,46.6,230.7c0,80-15.7,157.6-46.6,230.7c-29.9,70.6-72.6,134-127,188.4c-54.4,54.4-117.8,97.2-188.4,127
		c-73.1,30.9-150.7,46.6-230.7,46.6S418.5,946,345.4,915.1c-70.6-29.9-134-72.6-188.4-127c-54.4-54.4-97.2-117.8-127-188.4
		C-0.9,526.6-16.6,449-16.6,369c0-80,15.7-157.6,46.6-230.7c29.9-70.6,72.6-134,127-188.4c54.4-54.4,117.8-97.2,188.4-127
		C418.5-208,496.1-223.7,576.1-223.7 M576.1,969.3c81,0,159.6-15.9,233.7-47.2c71.5-30.2,135.7-73.5,190.8-128.6
		c55.1-55.1,98.4-119.3,128.6-190.8c31.3-74,47.2-152.6,47.2-233.7c0-81-15.9-159.6-47.2-233.7C1099,63.9,1055.7-0.3,1000.6-55.5
		c-55.1-55.1-119.3-98.4-190.8-128.6c-74-31.3-152.6-47.2-233.7-47.2s-159.6,15.9-233.7,47.2C271-153.9,206.8-110.6,151.7-55.5
		C96.5-0.3,53.2,63.9,23,135.3C-8.3,209.4-24.2,288-24.2,369c0,81,15.9,159.6,47.2,233.7c30.2,71.5,73.5,135.7,128.6,190.8
		S271,891.9,342.5,922.1C416.5,953.4,495.1,969.3,576.1,969.3"/>
	<path class="st0" d="M576.1-245.2c82.9,0,163.4,16.2,239.1,48.3C888.3-166,954-121.7,1010.4-65.3
		c56.4,56.4,100.7,122.1,131.6,195.2c32,75.7,48.3,156.2,48.3,239.1s-16.2,163.4-48.3,239.1c-30.9,73.1-75.2,138.8-131.6,195.2
		C954,859.7,888.3,904,815.2,934.9c-75.7,32-156.2,48.3-239.1,48.3S412.8,966.9,337,934.9c-73.1-30.9-138.8-75.2-195.2-131.6
		C85.4,746.9,41.1,681.2,10.2,608.1c-32-75.7-48.3-156.2-48.3-239.1s16.2-163.4,48.3-239.1C41.1,56.8,85.4-8.9,141.8-65.3
		C198.2-121.7,263.9-166,337-196.9C412.8-228.9,493.2-245.2,576.1-245.2 M576.1,990.8c83.9,0,165.4-16.4,242-48.9
		c74-31.3,140.5-76.1,197.6-133.2c57.1-57.1,101.9-123.6,133.2-197.6c32.4-76.7,48.9-158.1,48.9-242c0-83.9-16.4-165.4-48.9-242
		c-31.3-74-76.1-140.5-133.2-197.6c-57.1-57.1-123.6-101.9-197.6-133.2c-76.7-32.4-158.1-48.9-242-48.9s-165.4,16.4-242,48.9
		c-74,31.3-140.5,76.1-197.6,133.2C79.4-13.6,34.5,52.9,3.2,127c-32.4,76.7-48.9,158.1-48.9,242c0,83.9,16.4,165.4,48.9,242
		c31.3,74,76.1,140.5,133.2,197.6c57.1,57.1,123.6,101.9,197.6,133.2C410.7,974.3,492.2,990.8,576.1,990.8"/>
	<path class="st0" d="M576.1-266.7c85.8,0,169.1,16.8,247.4,50c75.7,32,143.7,77.9,202.1,136.2c58.4,58.4,104.2,126.4,136.2,202.1
		c33.1,78.4,50,161.6,50,247.4s-16.8,169.1-50,247.4c-32,75.7-77.9,143.7-136.2,202.1c-58.4,58.4-126.4,104.2-202.1,136.2
		c-78.4,33.1-161.6,50-247.4,50s-169.1-16.8-247.4-50c-75.7-32-143.7-77.9-202.1-136.2C68.2,760.1,22.4,692.1-9.6,616.4
		c-33.1-78.4-50-161.6-50-247.4s16.8-169.1,50-247.4c32-75.7,77.9-143.7,136.2-202.1S253-184.7,328.7-216.7
		C407-249.9,490.3-266.7,576.1-266.7 M576.1,1012.2c86.8,0,171.1-17,250.4-50.6c76.6-32.4,145.4-78.8,204.5-137.9
		c59.1-59.1,105.5-127.9,137.9-204.5c33.5-79.3,50.6-163.5,50.6-250.4s-17-171.1-50.6-250.4C1136.4,42,1090-26.8,1031-85.8
		c-59.1-59.1-127.9-105.5-204.5-137.9c-79.3-33.5-163.5-50.6-250.4-50.6s-171.1,17-250.4,50.6c-76.6,32.4-145.4,78.8-204.5,137.9
		C62.2-26.8,15.8,42-16.6,118.6C-50.1,197.9-67.1,282.2-67.1,369s17,171.1,50.6,250.4C15.8,696,62.2,764.8,121.3,823.8
		c59.1,59.1,127.9,105.5,204.5,137.9C405,995.2,489.3,1012.2,576.1,1012.2"/>
	<path class="st0" d="M576.1-288.2c88.7,0,174.8,17.4,255.8,51.6c78.3,33.1,148.5,80.5,208.9,140.8s107.7,130.6,140.8,208.9
		c34.3,81,51.6,167.1,51.6,255.8c0,88.7-17.4,174.8-51.6,255.8c-33.1,78.3-80.5,148.5-140.8,208.9
		C980.4,894,910.2,941.4,831.9,974.5c-81,34.3-167.1,51.6-255.8,51.6s-174.8-17.4-255.8-51.6C242,941.4,171.8,894,111.4,833.7
		C51.1,773.3,3.7,703.1-29.4,624.8c-34.3-81-51.6-167.1-51.6-255.8c0-88.7,17.4-174.8,51.6-255.8C3.7,34.9,51.1-35.3,111.4-95.7
		S242-203.4,320.3-236.5C401.3-270.8,487.4-288.2,576.1-288.2 M576.1,1033.7c89.7,0,176.8-17.6,258.8-52.2
		C914,948,985.1,900.1,1046.1,839c61-61,109-132.1,142.5-211.3c34.7-82,52.2-169,52.2-258.7c0-89.7-17.6-176.8-52.2-258.7
		C1155.1,31.1,1107.2-40,1046.1-101c-61-61-132.1-109-211.3-142.5c-82-34.7-169-52.2-258.8-52.2s-176.8,17.6-258.8,52.2
		C238.2-210,167.1-162.1,106.1-101C45-40-2.9,31.1-36.4,110.3c-34.7,82-52.2,169-52.2,258.7c0,89.7,17.6,176.8,52.2,258.7
		C-2.9,706.9,45,778,106.1,839c61,61,132.1,109,211.3,142.5C399.3,1016.2,486.4,1033.7,576.1,1033.7"/>
	<path class="st0" d="M576.1-309.7c91.6,0,180.5,17.9,264.2,53.3c80.8,34.2,153.4,83.1,215.7,145.4
		c62.3,62.3,111.3,134.9,145.4,215.7c35.4,83.7,53.3,172.5,53.3,264.2c0,91.6-17.9,180.5-53.3,264.2
		c-34.2,80.8-83.1,153.4-145.4,215.7c-62.3,62.3-134.9,111.3-215.7,145.4c-83.7,35.4-172.5,53.3-264.2,53.3s-180.5-17.9-264.2-53.3
		c-80.8-34.2-153.4-83.1-215.7-145.4C33.9,786.6-15,714-49.2,633.2c-35.4-83.7-53.3-172.5-53.3-264.2c0-91.6,17.9-180.5,53.3-264.2
		C-15,24,33.9-48.6,96.2-110.9c62.3-62.3,134.9-111.3,215.7-145.4C395.6-291.7,484.5-309.7,576.1-309.7 M576.1,1055.2
		c92.6,0,182.5-18.1,267.1-53.9c81.7-34.6,155.1-84,218.1-147.1s112.5-136.4,147.1-218.1c35.8-84.6,53.9-174.5,53.9-267.1
		c0-92.6-18.1-182.5-53.9-267.1c-34.6-81.7-84-155.1-147.1-218.1c-63-63-136.4-112.5-218.1-147.1c-84.6-35.8-174.5-53.9-267.1-53.9
		S393.6-299.1,309-263.3c-81.7,34.6-155.1,84-218.1,147.1c-63,63-112.5,136.4-147.1,218.1C-92,186.5-110.1,276.4-110.1,369
		c0,92.6,18.1,182.5,53.9,267.1c34.6,81.7,84,155.1,147.1,218.1S227.3,966.7,309,1001.3C393.6,1037.1,483.5,1055.2,576.1,1055.2"/>
	<path class="st0" d="M576.1-331.2c94.5,0,186.2,18.5,272.5,55c83.4,35.3,158.3,85.7,222.6,150.1c64.3,64.3,114.8,139.2,150.1,222.6
		c36.5,86.3,55,178,55,272.5c0,94.5-18.5,186.2-55,272.5c-35.3,83.4-85.7,158.3-150.1,222.6c-64.3,64.3-139.2,114.8-222.6,150.1
		c-86.3,36.5-178,55-272.5,55s-186.2-18.5-272.5-55C220.2,978.9,145.3,928.4,81,864.1C16.7,799.8-33.8,724.9-69,641.5
		c-36.5-86.3-55-178-55-272.5c0-94.5,18.5-186.2,55-272.5C-33.8,13.1,16.7-61.8,81-126.1c64.3-64.3,139.2-114.8,222.6-150.1
		C389.9-312.6,481.6-331.2,576.1-331.2 M576.1,1076.7c95.5,0,188.2-18.7,275.5-55.6c84.3-35.6,160-86.7,225-151.7
		c65-65,116-140.7,151.7-225c36.9-87.3,55.6-179.9,55.6-275.5s-18.7-188.2-55.6-275.5c-35.6-84.3-86.7-160-151.7-225
		c-65-65-140.7-116-225-151.7c-87.3-36.9-179.9-55.6-275.5-55.6S387.9-320,300.6-283.1c-84.3,35.6-160,86.7-225,151.7
		c-65,65-116,140.7-151.7,225c-36.9,87.3-55.6,179.9-55.6,275.5s18.7,188.2,55.6,275.5c35.6,84.3,86.7,160,151.7,225
		c65,65,140.7,116,225,151.7C387.9,1058,480.6,1076.7,576.1,1076.7"/>
</g>
</svg>
