<?xml version="1.0" encoding="utf-8"?>
<!-- Generator: Adobe Illustrator 22.1.0, SVG Export Plug-In . SVG Version: 6.00 Build 0)  -->
<svg version="1.1" id="Layer_1" xmlns="http://www.w3.org/2000/svg" xmlns:xlink="http://www.w3.org/1999/xlink" x="0px" y="0px"
	 viewBox="0 0 1151.5 738" style="enable-background:new 0 0 1151.5 738;" xml:space="preserve">
<style type="text/css">
	.st0{clip-path:url(#SVGID_2_);fill:none;stroke:#FFFFFF;stroke-miterlimit:10;}
	.st1{clip-path:url(#SVGID_2_);fill:#FFFFFF;}
	.st2{clip-path:url(#SVGID_2_);fill:#1D1D1B;}
</style>
<g>
	<defs>
		<rect id="SVGID_1_" x="-1" y="1.5" width="1154.2" height="733.5"/>
	</defs>
	<clipPath id="SVGID_2_">
		<use xlink:href="#SVGID_1_"  style="overflow:visible;"/>
	</clipPath>
	<path class="st0" d="M115.5,499.5c0,0-116,0-116,116v3c0,0,0,116,116,116h921.2c0,0,116,0,116-116v-3c0,0,0-116-116-116H115.5z"/>
	<path class="st0" d="M115.5,2c0,0-116,0-116,116v3c0,0,0,116,116,116h921.2c0,0,116,0,116-116v-3c0,0,0-116-116-116H115.5z"/>
	<path class="st1" d="M115.5,250c0,0-116,0-116,116v3c0,0,0,116,116,116h921.2c0,0,116,0,116-116v-3c0,0,0-116-116-116H115.5z"/>
	<path class="st1" d="M1033.5,726.2c60.3,0,109.2-48.9,109.2-109.2c0-60.3-48.9-109.2-109.2-109.2c-60.3,0-109.2,48.9-109.2,109.2
		C924.3,677.3,973.2,726.2,1033.5,726.2"/>
	<path class="st1" d="M1033.5,228.7c60.3,0,109.2-48.9,109.2-109.2c0-60.3-48.9-109.2-109.2-109.2c-60.3,0-109.2,48.9-109.2,109.2
		C924.3,179.8,973.2,228.7,1033.5,228.7"/>
	<path class="st2" d="M118.3,476.7c60.3,0,109.2-48.9,109.2-109.2s-48.9-109.2-109.2-109.2S9.1,307.1,9.1,367.5
		S58,476.7,118.3,476.7"/>
</g>
</svg>
