<?xml version="1.0" encoding="utf-8"?>
<!-- Generator: Adobe Illustrator 22.1.0, SVG Export Plug-In . SVG Version: 6.00 Build 0)  -->
<svg version="1.1" id="Layer_1" xmlns="http://www.w3.org/2000/svg" xmlns:xlink="http://www.w3.org/1999/xlink" x="0px" y="0px"
	 viewBox="0 0 1151.5 738" style="enable-background:new 0 0 1151.5 738;" xml:space="preserve">
<style type="text/css">
	
		.st0{clip-path:url(#SVGID_2_);fill:none;stroke:#FFFFFF;stroke-width:10.961;stroke-linecap:round;stroke-linejoin:round;stroke-miterlimit:10;stroke-dasharray:0,32.897;}
	
		.st1{clip-path:url(#SVGID_2_);fill:none;stroke:#FFFFFF;stroke-width:10.961;stroke-linecap:round;stroke-linejoin:round;stroke-miterlimit:10;stroke-dasharray:0,32.545;}
	
		.st2{clip-path:url(#SVGID_2_);fill:none;stroke:#FFFFFF;stroke-width:10.961;stroke-linecap:round;stroke-linejoin:round;stroke-miterlimit:10;stroke-dasharray:0,34.547;}
	
		.st3{clip-path:url(#SVGID_2_);fill:none;stroke:#FFFFFF;stroke-width:10.961;stroke-linecap:round;stroke-linejoin:round;stroke-miterlimit:10;stroke-dasharray:0,32.381;}
	
		.st4{clip-path:url(#SVGID_2_);fill:none;stroke:#FFFFFF;stroke-width:10.961;stroke-linecap:round;stroke-linejoin:round;stroke-miterlimit:10;stroke-dasharray:0,32.398;}
	
		.st5{clip-path:url(#SVGID_2_);fill:none;stroke:#FFFFFF;stroke-width:10.961;stroke-linecap:round;stroke-linejoin:round;stroke-miterlimit:10;stroke-dasharray:0,34.415;}
	
		.st6{clip-path:url(#SVGID_2_);fill:none;stroke:#FFFFFF;stroke-width:10.961;stroke-linecap:round;stroke-linejoin:round;stroke-miterlimit:10;stroke-dasharray:0,32.102;}
	
		.st7{clip-path:url(#SVGID_2_);fill:none;stroke:#FFFFFF;stroke-width:10.961;stroke-linecap:round;stroke-linejoin:round;stroke-miterlimit:10;stroke-dasharray:0,1.404;}
	
		.st8{clip-path:url(#SVGID_2_);fill:none;stroke:#FFFFFF;stroke-width:10.961;stroke-linecap:round;stroke-linejoin:round;stroke-miterlimit:10;stroke-dasharray:0,32.936;}
	
		.st9{clip-path:url(#SVGID_2_);fill:none;stroke:#FFFFFF;stroke-width:10.961;stroke-linecap:round;stroke-linejoin:round;stroke-miterlimit:10;stroke-dasharray:0,33.268;}
	
		.st10{clip-path:url(#SVGID_2_);fill:none;stroke:#FFFFFF;stroke-width:10.961;stroke-linecap:round;stroke-linejoin:round;stroke-miterlimit:10;stroke-dasharray:0,30.27;}
	
		.st11{clip-path:url(#SVGID_2_);fill:none;stroke:#FFFFFF;stroke-width:10.961;stroke-linecap:round;stroke-linejoin:round;stroke-miterlimit:10;stroke-dasharray:0,32.919;}
	
		.st12{clip-path:url(#SVGID_2_);fill:none;stroke:#FFFFFF;stroke-width:10.961;stroke-linecap:round;stroke-linejoin:round;stroke-miterlimit:10;stroke-dasharray:0,32.937;}
	
		.st13{clip-path:url(#SVGID_2_);fill:none;stroke:#FFFFFF;stroke-width:10.961;stroke-linecap:round;stroke-linejoin:round;stroke-miterlimit:10;stroke-dasharray:0,30.155;}
	
		.st14{clip-path:url(#SVGID_2_);fill:none;stroke:#FFFFFF;stroke-width:10.961;stroke-linecap:round;stroke-linejoin:round;stroke-miterlimit:10;stroke-dasharray:0,32.87;}
	
		.st15{clip-path:url(#SVGID_2_);fill:none;stroke:#FFFFFF;stroke-width:10.961;stroke-linecap:round;stroke-linejoin:round;stroke-miterlimit:10;stroke-dasharray:0,0.231;}
	
		.st16{clip-path:url(#SVGID_2_);fill:none;stroke:#FFFFFF;stroke-width:10.961;stroke-linecap:round;stroke-linejoin:round;stroke-miterlimit:10;stroke-dasharray:0,32.832;}
	
		.st17{clip-path:url(#SVGID_2_);fill:none;stroke:#FFFFFF;stroke-width:10.961;stroke-linecap:round;stroke-linejoin:round;stroke-miterlimit:10;stroke-dasharray:0,34.281;}
	
		.st18{clip-path:url(#SVGID_2_);fill:none;stroke:#FFFFFF;stroke-width:10.961;stroke-linecap:round;stroke-linejoin:round;stroke-miterlimit:10;stroke-dasharray:0,34.657;}
	
		.st19{clip-path:url(#SVGID_2_);fill:none;stroke:#FFFFFF;stroke-width:10.961;stroke-linecap:round;stroke-linejoin:round;stroke-miterlimit:10;stroke-dasharray:0,33.651;}
	
		.st20{clip-path:url(#SVGID_2_);fill:none;stroke:#FFFFFF;stroke-width:10.961;stroke-linecap:round;stroke-linejoin:round;stroke-miterlimit:10;stroke-dasharray:0,32.139;}
	
		.st21{clip-path:url(#SVGID_2_);fill:none;stroke:#FFFFFF;stroke-width:10.961;stroke-linecap:round;stroke-linejoin:round;stroke-miterlimit:10;stroke-dasharray:0,34.525;}
	
		.st22{clip-path:url(#SVGID_2_);fill:none;stroke:#FFFFFF;stroke-width:10.961;stroke-linecap:round;stroke-linejoin:round;stroke-miterlimit:10;stroke-dasharray:0,34.022;}
	
		.st23{clip-path:url(#SVGID_2_);fill:none;stroke:#FFFFFF;stroke-width:10.961;stroke-linecap:round;stroke-linejoin:round;stroke-miterlimit:10;stroke-dasharray:0,0.66;}
	
		.st24{clip-path:url(#SVGID_2_);fill:none;stroke:#FFFFFF;stroke-width:10.961;stroke-linecap:round;stroke-linejoin:round;stroke-miterlimit:10;stroke-dasharray:0,32.614;}
	
		.st25{clip-path:url(#SVGID_2_);fill:none;stroke:#FFFFFF;stroke-width:10.961;stroke-linecap:round;stroke-linejoin:round;stroke-miterlimit:10;stroke-dasharray:0,31.822;}
	
		.st26{clip-path:url(#SVGID_2_);fill:none;stroke:#FFFFFF;stroke-width:10.961;stroke-linecap:round;stroke-linejoin:round;stroke-miterlimit:10;stroke-dasharray:0,28.954;}
	
		.st27{clip-path:url(#SVGID_2_);fill:none;stroke:#FFFFFF;stroke-width:10.961;stroke-linecap:round;stroke-linejoin:round;stroke-miterlimit:10;stroke-dasharray:0,32.799;}
	
		.st28{clip-path:url(#SVGID_2_);fill:none;stroke:#FFFFFF;stroke-width:10.961;stroke-linecap:round;stroke-linejoin:round;stroke-miterlimit:10;stroke-dasharray:0,32.817;}
	
		.st29{clip-path:url(#SVGID_2_);fill:none;stroke:#FFFFFF;stroke-width:10.961;stroke-linecap:round;stroke-linejoin:round;stroke-miterlimit:10;stroke-dasharray:0,28.844;}
	
		.st30{clip-path:url(#SVGID_2_);fill:none;stroke:#FFFFFF;stroke-width:10.961;stroke-linecap:round;stroke-linejoin:round;stroke-miterlimit:10;stroke-dasharray:0,30.807;}
	
		.st31{clip-path:url(#SVGID_2_);fill:none;stroke:#FFFFFF;stroke-width:10.961;stroke-linecap:round;stroke-linejoin:round;stroke-miterlimit:10;stroke-dasharray:0,3.900000e-02;}
	
		.st32{clip-path:url(#SVGID_2_);fill:none;stroke:#FFFFFF;stroke-width:10.961;stroke-linecap:round;stroke-linejoin:round;stroke-miterlimit:10;stroke-dasharray:0,32.365;}
	
		.st33{clip-path:url(#SVGID_2_);fill:none;stroke:#FFFFFF;stroke-width:10.961;stroke-linecap:round;stroke-linejoin:round;stroke-miterlimit:10;stroke-dasharray:0,32.855;}
	
		.st34{clip-path:url(#SVGID_2_);fill:none;stroke:#FFFFFF;stroke-width:10.961;stroke-linecap:round;stroke-linejoin:round;stroke-miterlimit:10;stroke-dasharray:0,34.877;}
	
		.st35{clip-path:url(#SVGID_2_);fill:none;stroke:#FFFFFF;stroke-width:10.961;stroke-linecap:round;stroke-linejoin:round;stroke-miterlimit:10;stroke-dasharray:0,33.864;}
	
		.st36{clip-path:url(#SVGID_2_);fill:none;stroke:#FFFFFF;stroke-width:10.961;stroke-linecap:round;stroke-linejoin:round;stroke-miterlimit:10;stroke-dasharray:0,33.883;}
	
		.st37{clip-path:url(#SVGID_2_);fill:none;stroke:#FFFFFF;stroke-width:10.961;stroke-linecap:round;stroke-linejoin:round;stroke-miterlimit:10;stroke-dasharray:0,34.744;}
	
		.st38{clip-path:url(#SVGID_2_);fill:none;stroke:#FFFFFF;stroke-width:10.961;stroke-linecap:round;stroke-linejoin:round;stroke-miterlimit:10;stroke-dasharray:0,31.858;}
	
		.st39{clip-path:url(#SVGID_2_);fill:none;stroke:#FFFFFF;stroke-width:10.961;stroke-linecap:round;stroke-linejoin:round;stroke-miterlimit:10;stroke-dasharray:0,33.724;}
	
		.st40{clip-path:url(#SVGID_2_);fill:none;stroke:#FFFFFF;stroke-width:10.961;stroke-linecap:round;stroke-linejoin:round;stroke-miterlimit:10;stroke-dasharray:0,34.715;}
	
		.st41{clip-path:url(#SVGID_2_);fill:none;stroke:#FFFFFF;stroke-width:10.961;stroke-linecap:round;stroke-linejoin:round;stroke-miterlimit:10;stroke-dasharray:0,26.322;}
	
		.st42{clip-path:url(#SVGID_2_);fill:none;stroke:#FFFFFF;stroke-width:10.961;stroke-linecap:round;stroke-linejoin:round;stroke-miterlimit:10;stroke-dasharray:0,32.528;}
	
		.st43{clip-path:url(#SVGID_2_);fill:none;stroke:#FFFFFF;stroke-width:10.961;stroke-linecap:round;stroke-linejoin:round;stroke-miterlimit:10;stroke-dasharray:0,32.546;}
	
		.st44{clip-path:url(#SVGID_2_);fill:none;stroke:#FFFFFF;stroke-width:10.961;stroke-linecap:round;stroke-linejoin:round;stroke-miterlimit:10;stroke-dasharray:0,26.222;}
	
		.st45{clip-path:url(#SVGID_2_);fill:none;stroke:#FFFFFF;stroke-width:10.961;stroke-linecap:round;stroke-linejoin:round;stroke-miterlimit:10;stroke-dasharray:0,34.453;}
	
		.st46{clip-path:url(#SVGID_2_);fill:none;stroke:#FFFFFF;stroke-width:10.961;stroke-linecap:round;stroke-linejoin:round;stroke-miterlimit:10;stroke-dasharray:0,1.346;}
	
		.st47{clip-path:url(#SVGID_2_);fill:none;stroke:#FFFFFF;stroke-width:10.961;stroke-linecap:round;stroke-linejoin:round;stroke-miterlimit:10;stroke-dasharray:0,33.544;}
	
		.st48{clip-path:url(#SVGID_2_);fill:none;stroke:#FFFFFF;stroke-width:10.961;stroke-linecap:round;stroke-linejoin:round;stroke-miterlimit:10;stroke-dasharray:0,29.29;}
	
		.st49{clip-path:url(#SVGID_2_);fill:none;stroke:#FFFFFF;stroke-width:10.961;stroke-linecap:round;stroke-linejoin:round;stroke-miterlimit:10;stroke-dasharray:0,35.534;}
	
		.st50{clip-path:url(#SVGID_2_);fill:none;stroke:#FFFFFF;stroke-width:10.961;stroke-linecap:round;stroke-linejoin:round;stroke-miterlimit:10;stroke-dasharray:0,34.496;}
	
		.st51{clip-path:url(#SVGID_2_);fill:none;stroke:#FFFFFF;stroke-width:10.961;stroke-linecap:round;stroke-linejoin:round;stroke-miterlimit:10;stroke-dasharray:0,34.514;}
	
		.st52{clip-path:url(#SVGID_2_);fill:none;stroke:#FFFFFF;stroke-width:10.961;stroke-linecap:round;stroke-linejoin:round;stroke-miterlimit:10;stroke-dasharray:0,35.399;}
	
		.st53{clip-path:url(#SVGID_2_);fill:none;stroke:#FFFFFF;stroke-width:10.961;stroke-linecap:round;stroke-linejoin:round;stroke-miterlimit:10;stroke-dasharray:0,34.967;}
	
		.st54{clip-path:url(#SVGID_2_);fill:none;stroke:#FFFFFF;stroke-width:10.961;stroke-linecap:round;stroke-linejoin:round;stroke-miterlimit:10;stroke-dasharray:0,34.608;}
	
		.st55{clip-path:url(#SVGID_2_);fill:none;stroke:#FFFFFF;stroke-width:10.961;stroke-linecap:round;stroke-linejoin:round;stroke-miterlimit:10;}
</style>
<g>
	<defs>
		<rect id="SVGID_1_" width="1152.2" height="738"/>
	</defs>
	<clipPath id="SVGID_2_">
		<use xlink:href="#SVGID_1_"  style="overflow:visible;"/>
	</clipPath>
	<line class="st0" x1="5" y1="1026.9" x2="5" y2="-305.4"/>
	<line class="st1" x1="37.5" y1="-321.8" x2="444.3" y2="-321.8"/>
	<path class="st2" d="M495.1-320.9c28.4,1.4,57,4.7,85.8,9.7"/>
	<path class="st3" d="M629.5-300.9c296.7,75.1,510.3,341.4,517.6,648.2"/>
	<path class="st4" d="M1146.5,395.9c-14.5,305.3-233.2,567.5-533.3,635.9"/>
	<path class="st5" d="M563.5,1041.2c-28.6,4.3-57.3,6.8-85.7,7.5"/>
	<line class="st6" x1="428.5" y1="1048.9" x2="91.4" y2="1048.9"/>
	<line class="st7" x1="75.7" y1="1047.5" x2="75.5" y2="1048.2"/>
	<line class="st8" x1="75.7" y1="1014.6" x2="75.7" y2="-220.5"/>
	<line class="st9" x1="109" y1="-237" x2="458.3" y2="-237"/>
	<path class="st10" d="M505.2-236.2c24.9,1.3,50,4.1,75.2,8.5"/>
	<path class="st11" d="M627.3-217.6c257,66.6,441.7,298.3,449,564.6"/>
	<path class="st12" d="M1075.6,396.4C1061,661.3,871.2,888.9,610.8,948.6"/>
	<path class="st13" d="M565,957.3c-25.1,3.8-50.2,5.9-75.1,6.5"/>
	<line class="st14" x1="442" y1="964" x2="162.6" y2="964"/>
	<line class="st15" x1="146.4" y1="964.1" x2="146.3" y2="964.1"/>
	<line class="st16" x1="146.4" y1="931.3" x2="146.4" y2="-135.7"/>
	<line class="st17" x1="180.7" y1="-152.1" x2="472.1" y2="-152.1"/>
	<path class="st18" d="M523.8-151c17.1,1.1,34.4,3.1,51.6,6"/>
	<path class="st19" d="M625.2-134.1c217.1,58.7,372.9,255,380.3,480.8"/>
	<path class="st20" d="M1004.8,395.6c-14.1,225.2-175.6,418.2-397,469.9"/>
	<path class="st21" d="M558.1,874.6c-17.2,2.3-34.5,3.7-51.6,4.3"/>
	<line class="st22" x1="455.2" y1="879.2" x2="234" y2="879.2"/>
	<line class="st23" x1="217.1" y1="878.5" x2="217.1" y2="878.8"/>
	<line class="st24" x1="217.1" y1="845.9" x2="217.1" y2="-51"/>
	<line class="st25" x1="248.9" y1="-67.3" x2="487.6" y2="-67.3"/>
	<path class="st26" d="M532.4-66.3c14.3,1,28.7,2.6,43.1,5"/>
	<path class="st27" d="M621.7-50.9C800-0.6,927.7,161,934.8,347.1"/>
	<path class="st28" d="M933.8,396.3C919.7,580.9,787,738.5,605.5,782.2"/>
	<path class="st29" d="M561,790.5c-14.4,1.9-28.8,3.1-43.1,3.6"/>
	<line class="st30" x1="472.7" y1="794.3" x2="303.3" y2="794.3"/>
	<line class="st31" x1="287.8" y1="794.3" x2="287.8" y2="794.3"/>
	<line class="st32" x1="287.8" y1="762" x2="287.8" y2="33.8"/>
	<line class="st33" x1="320.7" y1="17.6" x2="501.4" y2="17.6"/>
	<path class="st34" d="M552.6,19.3c5.8,0.6,11.5,1.3,17.3,2.2"/>
	<path class="st35" d="M619.9,32.8C758.1,75.1,856.8,201.3,864,346.6"/>
	<path class="st36" d="M862.7,397.4c-14.2,143.7-117.9,265.8-259.4,301.5"/>
	<path class="st37" d="M552.5,707.7c-5.8,0.6-11.6,1-17.3,1.3"/>
	<line class="st38" x1="485.9" y1="709.5" x2="374.4" y2="709.5"/>
	<line class="st39" x1="358.5" y1="675.7" x2="358.5" y2="119.3"/>
	<line class="st40" x1="393.2" y1="102.4" x2="514.7" y2="102.4"/>
	<path class="st41" d="M558.4,103.8c4.3,0.4,8.7,1,13.1,1.6"/>
	<path class="st42" d="M615.8,116.1c99.7,33.5,170.7,125.3,177.4,231.2"/>
	<path class="st43" d="M791.6,396c-13.2,104.3-88.8,192.3-191.6,219.7"/>
	<path class="st44" d="M558.3,623.3c-4.4,0.4-8.7,0.8-13.1,1"/>
	<line class="st45" x1="497.7" y1="624.6" x2="446" y2="624.6"/>
	<line class="st46" x1="429.2" y1="623.4" x2="429" y2="624"/>
	<line class="st47" x1="429.2" y1="589.8" x2="429.2" y2="204.1"/>
	<line class="st48" x1="458.5" y1="187.3" x2="531.8" y2="187.3"/>
	<path class="st49" d="M581.7,190.8c-5.9-1.2-11.7-2-17.6-2.6"/>
	<path class="st50" d="M614.6,201c59.2,24.8,101.1,80.7,107.5,145.3"/>
	<path class="st51" d="M719.6,397.8c-12.6,62.9-59.1,115-121.3,134.2"/>
	<path class="st52" d="M546.4,539.8c5.8,0,11.8-0.3,17.7-0.9"/>
	<line class="st53" x1="511.4" y1="539.8" x2="528.9" y2="539.8"/>
	<line class="st54" x1="511.4" y1="505.2" x2="511.5" y2="280.2"/>
	<path class="st55" d="M511.5,262.9L511.5,262.9 M511.4,539.8L511.4,539.8 M546.4,539.8L546.4,539.8 M581.6,536.3L581.6,536.3
		 M723,363.5L723,363.5 M581.7,190.8L581.7,190.8 M546.4,187.3L546.4,187.3 M429.2,187.3L429.2,187.3 M429.2,623.4L429.2,623.4
		 M428.7,624.6L428.7,624.6 M532.1,624.6L532.1,624.6 M584.2,619.4L584.2,619.4 M793.7,363.5L793.7,363.5 M584.4,107.7L584.4,107.7
		 M532.1,102.4L532.1,102.4 M358.5,102.4L358.5,102.4 M358.5,709.5L358.5,709.5 M517.8,709.5L517.8,709.5 M586.8,702.6L586.8,702.6
		 M864.4,363.5L864.4,363.5 M587.1,24.5L587.1,24.5 M517.8,17.6L517.8,17.6 M287.8,17.6L287.8,17.6 M287.8,794.3L287.8,794.3
		 M287.9,794.3L287.9,794.3 M503.5,794.3L503.5,794.3 M589.5,785.8L589.5,785.8 M935.1,363.5L935.1,363.5 M589.8-58.6L589.8-58.6
		 M503.5-67.3L503.5-67.3 M217.1-67.3L217.1-67.3 M217.1,878.5L217.1,878.5 M217,879.2L217,879.2 M489.2,879.2L489.2,879.2
		 M592.1,868.9L592.1,868.9 M1005.8,363.5L1005.8,363.5 M592.5-141.8L592.5-141.8 M489.2-152.1L489.2-152.1 M146.4-152.1
		L146.4-152.1 M146.4,964.1L146.4,964.1 M146.2,964L146.2,964 M474.9,964L474.9,964 M594.7,952.1L594.7,952.1 M1076.5,363.5
		L1076.5,363.5 M595.2-224.9L595.2-224.9 M474.9-237L474.9-237 M75.7-237L75.7-237 M75.7,1047.5L75.7,1047.5 M75.4,1048.9
		L75.4,1048.9 M460.6,1048.9L460.6,1048.9 M597.4,1035.3L597.4,1035.3 M1147.2,363.5L1147.2,363.5 M597.9-308.1L597.9-308.1
		 M460.6-321.8L460.6-321.8 M5-321.8L5-321.8 M5,1059.8L5,1059.8"/>
</g>
</svg>
