<?xml version="1.0" encoding="utf-8"?>
<!-- Generator: Adobe Illustrator 22.1.0, SVG Export Plug-In . SVG Version: 6.00 Build 0)  -->
<svg version="1.1" id="Layer_1" xmlns="http://www.w3.org/2000/svg" xmlns:xlink="http://www.w3.org/1999/xlink" x="0px" y="0px"
	 viewBox="0 0 1151.5 738" style="enable-background:new 0 0 1151.5 738;" xml:space="preserve">
<style type="text/css">
	.st0{fill:#FFFFFF;}
</style>
<polygon class="st0" points="0,716.5 0,738 82.8,738 576.3,720 576.3,695.5 "/>
<polygon class="st0" points="0,672.7 0,697.2 576.3,676.2 576.3,651.7 "/>
<polygon class="st0" points="0,628.8 0,653.4 576.3,632.4 576.3,607.9 "/>
<polygon class="st0" points="0,585 0,609.5 576.3,588.5 576.3,564 "/>
<polygon class="st0" points="0,541.2 0,565.7 576.3,544.7 576.3,520.2 "/>
<polygon class="st0" points="0,497.3 0,521.9 576.3,500.9 576.3,476.4 "/>
<polygon class="st0" points="0,453.5 0,478 576.3,457 576.3,432.5 "/>
<polygon class="st0" points="0,409.7 0,434.2 576.3,413.2 576.3,388.7 "/>
<polygon class="st0" points="0,365.9 0,390.4 576.3,369.4 576.3,344.9 "/>
<polygon class="st0" points="0,322 0,346.5 576.3,325.6 576.3,301 "/>
<polygon class="st0" points="0,278.2 0,302.7 576.3,281.7 576.3,257.2 "/>
<polygon class="st0" points="0,234.4 0,258.9 576.3,237.9 576.3,213.4 "/>
<polygon class="st0" points="0,190.5 0,215.1 576.3,194.1 576.3,169.6 "/>
<polygon class="st0" points="0,146.7 0,171.2 576.3,150.2 576.3,125.7 "/>
<polygon class="st0" points="0,102.9 0,127.4 576.3,106.4 576.3,81.9 "/>
<polygon class="st0" points="0,59 0,83.6 576.3,62.6 576.3,38.1 "/>
<polygon class="st0" points="417.8,0 0,15.2 0,39.7 576.3,18.7 576.3,0 "/>
<polygon class="st0" points="576,727.7 576,738 966.4,738 1152.2,731.2 1152.2,706.7 "/>
<polygon class="st0" points="576,683.9 576,708.4 1152.2,687.4 1152.2,662.9 "/>
<polygon class="st0" points="576,640 576,664.6 1152.2,643.6 1152.2,619.1 "/>
<polygon class="st0" points="576,596.2 576,620.7 1152.2,599.7 1152.2,575.2 "/>
<polygon class="st0" points="576,552.4 576,576.9 1152.2,555.9 1152.2,531.4 "/>
<polygon class="st0" points="576,508.6 576,533.1 1152.2,512.1 1152.2,487.6 "/>
<polygon class="st0" points="576,464.7 576,489.2 1152.2,468.3 1152.2,443.7 "/>
<polygon class="st0" points="576,420.9 576,445.4 1152.2,424.4 1152.2,399.9 "/>
<polygon class="st0" points="576,377.1 576,401.6 1152.2,380.6 1152.2,356.1 "/>
<polygon class="st0" points="576,333.2 576,357.8 1152.2,336.8 1152.2,312.2 "/>
<polygon class="st0" points="576,289.4 576,313.9 1152.2,292.9 1152.2,268.4 "/>
<polygon class="st0" points="576,245.6 576,270.1 1152.2,249.1 1152.2,224.6 "/>
<polygon class="st0" points="576,201.7 576,226.3 1152.2,205.3 1152.2,180.8 "/>
<polygon class="st0" points="576,157.9 576,182.4 1152.2,161.4 1152.2,136.9 "/>
<polygon class="st0" points="576,114.1 576,138.6 1152.2,117.6 1152.2,93.1 "/>
<polygon class="st0" points="576,70.2 576,94.8 1152.2,73.8 1152.2,49.3 "/>
<polygon class="st0" points="576,26.4 576,50.9 1152.2,29.9 1152.2,5.4 "/>
<polygon class="st0" points="576,0 576,7.1 771.1,0 "/>
</svg>
