<?xml version="1.0" encoding="utf-8"?>
<!-- Generator: Adobe Illustrator 22.1.0, SVG Export Plug-In . SVG Version: 6.00 Build 0)  -->
<svg version="1.1" id="Layer_1" xmlns="http://www.w3.org/2000/svg" xmlns:xlink="http://www.w3.org/1999/xlink" x="0px" y="0px"
	 viewBox="0 0 1154.8 739" style="enable-background:new 0 0 1154.8 739;" xml:space="preserve">
<style type="text/css">
	.st0{clip-path:url(#SVGID_2_);fill:none;stroke:#FFFFFF;}
	.st1{clip-path:url(#SVGID_2_);fill:#FFFFFF;}
	.st2{clip-path:url(#SVGID_2_);fill:none;stroke:#FFFFFF;stroke-miterlimit:10;}
	.st3{fill:none;stroke:#FFFFFF;stroke-miterlimit:10;}
	.st4{clip-path:url(#SVGID_4_);fill:none;stroke:#FFFFFF;stroke-miterlimit:10;}
</style>
<g>
	<defs>
		<rect id="SVGID_1_" width="1154.8" height="739"/>
	</defs>
	<clipPath id="SVGID_2_">
		<use xlink:href="#SVGID_1_"  style="overflow:visible;"/>
	</clipPath>
	<rect x="0.5" y="0.5" class="st0" width="1152.2" height="738"/>
	<path class="st1" d="M576.6,406.8c39.8,0,72-32.2,72-72c0-39.8-32.2-72-72-72c-39.8,0-72,32.2-72,72
		C504.6,374.6,536.8,406.8,576.6,406.8"/>
	<path class="st1" d="M573.3,600.2c35.1,0,63.5,7.4,63.5,16.5c0,9.1-28.4,16.6-63.5,16.6c-35.1,0-63.5-7.4-63.5-16.6
		C509.8,607.6,538.2,600.2,573.3,600.2"/>
	<line class="st2" x1="1.8" y1="738.1" x2="169" y2="494.9"/>
	<line class="st2" x1="1154.4" y1="738.1" x2="987.2" y2="494.9"/>
</g>
<line class="st3" x1="985.3" y1="494.6" x2="167.9" y2="494.6"/>
<g>
	<defs>
		<rect id="SVGID_3_" width="1154.8" height="739"/>
	</defs>
	<clipPath id="SVGID_4_">
		<use xlink:href="#SVGID_3_"  style="overflow:visible;"/>
	</clipPath>
	<line class="st4" x1="169.4" y1="494.1" x2="169.4" y2="0"/>
	<line class="st4" x1="986.7" y1="494.1" x2="986.7" y2="0"/>
</g>
</svg>
