<?xml version="1.0" encoding="utf-8"?>
<!-- Generator: Adobe Illustrator 22.1.0, SVG Export Plug-In . SVG Version: 6.00 Build 0)  -->
<svg version="1.1" id="Layer_1" xmlns="http://www.w3.org/2000/svg" xmlns:xlink="http://www.w3.org/1999/xlink" x="0px" y="0px"
	 viewBox="0 0 1151.5 738" style="enable-background:new 0 0 1151.5 738;" xml:space="preserve">
<style type="text/css">
	.st0{clip-path:url(#SVGID_2_);fill:#FFFFFF;}
	.st1{clip-path:url(#SVGID_2_);fill:none;stroke:#FFFFFF;stroke-width:2.035;stroke-miterlimit:10;}
</style>
<g>
	<defs>
		<rect id="SVGID_1_" width="1152" height="737"/>
	</defs>
	<clipPath id="SVGID_2_">
		<use xlink:href="#SVGID_1_"  style="overflow:visible;"/>
	</clipPath>
	<path class="st0" d="M732.7,303.7c0,70.8-57.4,128.2-128.2,128.2s-128.2-57.4-128.2-128.2s57.4-128.2,128.2-128.2
		S732.7,232.9,732.7,303.7"/>
	<path class="st1" d="M0,510.3c40.1,3.3,80.2,11.2,120,16.9c37.7,5.4,70.7,27,108.5,31.6c69,8.3,138.4-3.3,206-14
		c63.4-10,134.1-6.6,197.9-1.2c80.6,6.8,159.7-0.3,240.5-0.6 M9.8,502.3c40,5.4,80.1,12,120,18.2c37.2,5.7,70.6,23,108.5,25.5
		c35.1,2.3,71.9,5.7,107,4.8c34-0.9,66.2-10.6,99.8-14.5c144.7-16.6,292.6,15.2,437.4,1.7 M19.5,495c77.6,14,155.7,29.3,234.1,36.4
		c32.1,2.9,63.9,10.9,96.2,11.1c35.6,0.2,70.1-10.6,105.5-13.2c65.6-4.6,131.8,2.2,197.7-1.8c83-5.1,156.9,24.5,239,5.6 M29.3,488.3
		c77.6,16.5,155.8,22,234.2,32.4c32.8,4.4,64.2,14.1,97.6,13.4c34.9-0.7,69.1-10.5,104-12c67.2-2.8,132.7,3.3,199.9-4.4
		c42.8-4.9,71.6-1.5,111.9,13.4c44.5,16.5,80.5,6.7,124.6-7 M39.1,488.7c77.5,12.9,156.8,12.9,234.2,25.3
		c33,5.3,63.9,12.7,97.6,11.3c34.8-1.4,69.1-7.7,104.1-8.5c67.3-1.6,132.7-2.2,199.7-8.8c43.6-4.3,69.9,4.1,110.6,17.8
		c43.8,14.8,83.2-0.5,125.8-12.4 M48.8,493.8c75.3,5.4,154.1-1,228.5,12.5c70,12.7,136.9,9.9,207.8,7.4
		c68.5-2.5,136-11.3,204.1-16.2c38.5-2.8,64.7,10.2,100.9,21.2c44.3,13.4,87.3-5.5,130.4-15.5 M58.6,493.1
		c75.1,0.2,154.5-7.5,228.5,6.9c67.6,13.2,139.7,13.1,208.4,8.1c67.4-4.9,135.7-18.1,203-20.2c37.5-1.2,64.5,16.3,100.1,24.5
		c43.8,10.2,89-11.3,131.7-18.8 M68.3,484.9c75.9,0,153.8-5.9,228.5,8.8c66.9,13.2,140.9,10.6,208.8,5.6
		c64.6-4.8,133.4-19.1,197.8-17.7c36.8,0.8,68.2,19.7,104.2,24.5c44.3,5.9,88.7-16.4,132.3-21.2 M78.1,476.6
		c77,0,152.7-3.4,228.5,10.8c66.8,12.5,140.5,6.9,208.2,4.3c61.4-2.4,126.8-16,187.6-12.8c38.9,2.1,75.7,18.9,114.6,19.9
		c45,1.2,87.6-20.1,132.8-22.3 M87.9,468.4c77.9,0,151.7-0.1,228.5,12.6c66.9,11.1,139.7,3.8,207.4,3.6c59.9-0.2,122-13.7,181.1-9.3
		c40.7,3,81,17.4,122,15.4c45.4-2.3,86.5-21.8,132.7-22.3 M90,457.4c149,0,294.5,21.1,443.7,20.5c57.6-0.2,116.8-14.6,173.7-10
		c44,3.5,88.2,15.9,132.6,11.4c44.3-4.5,86.2-15.3,131.1-16.1 M76.2,441c42,0,84.3-1.3,126.2,0c48.5,1.5,96.1,13.5,144.4,17.4
		c66.8,5.4,129.2,17,196.7,16.1c60.4-0.8,117.9-16.1,178.2-12.8c85.8,4.7,177.3,13.9,262.4,0 M66.4,426c96.6,0,189,8.2,285,18.2
		c37.6,3.9,71.3,20.4,108.4,25.9c30.2,4.4,62.5,0.6,92.9,0c58.8-1.2,113.1-16.8,172.4-16.4c43.9,0.3,88-0.9,131.7,3.3
		c44.2,4.3,95.9,20,138.2-0.5 M74,417c97,0,191,7.7,287.3,18.8c37.3,4.3,71.3,22.6,108.8,26.5c29.6,3.1,61.7,0.8,91.6,0.7
		c28.8-0.1,52.9-5.3,80.7-11.6c31.2-7.1,63.2-5,95.1-5.7c43.9-0.9,87.2-2.6,130.8,3c45.5,5.8,91.3,19.2,134.4-3.9 M83.8,408.7
		c96.3,0,192.3,5.5,287.6,19.8c66.8,10,131.4,27.2,199.5,29.9c28.4,1.1,50.8-7.9,77.9-13.5c33-6.9,68.1-5.4,101.7-8.3
		c44.5-3.8,85.5-5.1,129.7,1c46.6,6.5,85.3,13.8,129.7-6.2 M93.5,400.4c96.4,0,192.7,7.2,288.1,20.7c36.1,5.1,71.6,11,107.7,15.6
		c30.5,3.9,60,16.9,91,17.8c27,0.8,49.3-11.2,75.2-16.1c35.3-6.6,72.6-7.4,108.3-12.5c86.1-12.1,170.2,21.7,253.4-6.5 M103.3,392.1
		c96.5,0,199.6,2.2,294.2,21.9c33,6.9,65.3,10.6,98.5,15.3c31.4,4.4,61.2,17.8,93.4,16.4c24.5-1,45.8-12.3,69.6-16.7
		c40.7-7.5,84-10.2,125.1-15.7c44.9-6.1,84.6,1.6,128.8,7.7c40.7,5.6,73-1.7,112-11.9 M113.1,383.9c93.7,0,205.1-14.5,293.6,18.8
		c55.2,20.8,132.6,36.3,192.3,29.1c27.1-3.3,52.1-15.5,79.2-19.3c39-5.5,79.8-9.7,119.1-13.5c44-4.3,83.5,8.5,126.5,14.7
		c39.8,5.7,70.9-7.4,109.3-14.3 M122.8,375.6c51.9,0,103.2-2.2,155-5.4c56.9-3.5,88.5-1.9,138.5,24.6
		c54.1,28.7,132.5,32.6,193.3,21.8c66.2-11.8,130.1-30.1,198.4-31.4c44.1-0.9,83.3,16,126.5,21.4c38.4,4.8,69.9-13.2,107.2-16.4
		 M133.9,367.3c53.6,0,105.7-4.2,159.1-9.2c58.3-5.4,84.4,6.3,134.2,33.4c51.3,27.9,136,24.5,192.6,12.4
		c64.2-13.7,131.2-29.7,197.7-28.4c43.9,0.8,84,21.2,127.5,24c36.3,2.4,69.7-15.1,105.5-18.5 M156.6,359.1
		c54.1,0,104.4-8.3,157.9-14.1c47.9-5.2,73.1,13.9,115.8,33c55.9,25.1,139.7,18,199.9,9.2c61.5-9,129-21.5,191.3-20
		c44.4,1.1,86,25,130.3,24.4c36.4-0.5,66.3-22.2,103.1-24.2 M185.3,350.8c46.7,0,87.5-10.9,133-17.6c46.8-6.9,73.3,13.1,114.6,29.9
		c58.8,23.8,145.2,11,207.8,8.1c63.4-3,134.3-17.9,197-10.6c39.3,4.5,80.7,27.2,120.4,22.7c37.3-4.3,59.9-29.6,100.2-30.3
		 M205.1,342.5c43.6-0.4,81.3-15.7,123.7-20.4c44.4-4.9,73.7,20.9,113.8,33.4c61.5,19.2,143.9,5.3,208.1,5.3
		c64.5,0,134.5-17.9,197.9-7.5c37,6.1,80.1,29.1,117.8,20.1c12.8-3,21.3-11.9,32.5-17.5c24.9-12.4,38.1-13.4,67-13.4 M217.4,334.2
		c41.3-1.8,80.1-18,121.1-19.3c42.7-1.4,74,27.2,114.2,35.5c64.7,13.3,141.7,2.1,207.7,2.1c65.8,0,135.1-28.5,199.1-12.7
		c35.6,8.8,72.5,29.2,110,18.9c12.1-3.3,22-12,33.6-16.3c24.6-9.2,46.1-8.2,72.3-8.2 M228.2,326c40-3.4,80-18.5,120.2-16.5
		c40.8,2,74.2,29.8,114.4,34.5c67.3,7.8,139.7,0.3,207.4,0.3c69.1,0,131.5-43.1,198.9-19.3c35.2,12.4,64,26.9,102.4,17.9
		c40-9.3,71.1-16.9,113.4-16.9 M238,317.4c39.6-5.1,80.4-18.9,120.4-13.9c39.9,4.9,73.5,30.2,114.2,32.6c68.5,4,138.7,0.4,207.3,0
		c37.4-0.2,63.9-9.5,98.7-22.8c37.5-14.3,62.3-12.1,99.5,3.4c35.2,14.7,60.1,22.2,98.7,13.7c40.4-8.9,75.8-12.6,117.6-12.6
		 M247.8,308.5c40.1-4.6,80.6-14.1,120.7-7.2c39.7,6.8,73,25.7,113.9,26.4c68.9,1.1,138.5,2.1,207.3,0c37.3-1.1,64.3-14.9,99.2-26.7
		c37.7-12.9,62.7-3.3,98.5,11.5c35.2,14.5,59.3,16.1,96.7,7.3c40.5-9.5,78-10.4,119.8-10.4 M257.5,300.7c40.6-2,81.1-6.3,121.2,0.7
		c39.3,6.8,73.2,18.1,113.4,18.1c68.6,0,138.9,4.6,207.4-0.1c36.6-2.5,64.7-21.1,99.6-30c37.8-9.6,62.8,5.5,97.6,18.9
		c35.1,13.4,58.6,9.4,94.6,1c40.7-9.4,80.4-8.1,122.1-8.1 M267.3,292.9c146.9,0,294.1,34.9,442.1,17.5c35.5-4.2,65-26,99.8-31.9
		c36.9-6.2,63.3,14.2,96.9,25.1c34.7,11.3,58.2,2.6,92.6-4.9c40.8-8.8,82.8-5.9,124.4-5.9 M277,284.6c79.7,0,155.4,18.3,234.6,18.3
		c66.9,0,141.7,9.4,207.6-2.1c34.2-6,64.8-30.1,99.8-32.2c35.7-2.1,63.2,21.5,96.4,29.8c33.7,8.4,57.9-3.6,90.7-10
		c41.1-8,84.8-3.9,126.5-3.9 M286.8,276.3c79.6,0,155.2,18.3,234.6,18.3c65.6,0,144.2,11.8,207.8-4.3c33.1-8.4,64.4-31.5,99.6-30.3
		c34.4,1.2,62.8,26.6,96.1,32.3c32.2,5.5,57.9-8.6,89-13.9c41.4-7,86.4-2.1,128.3-2.1 M296.6,268.1c79.4,0,155.1,18.3,234.6,18.3
		c65.4,0,145.5,12.5,208.2-7.3c32.8-10.4,63.3-30.8,99.1-26.2c34,4.4,61.2,29.7,95.9,32.5c31,2.5,57.7-12.8,87.9-16.5
		c42.3-5.1,87.2-0.8,129.7-0.8"/>
</g>
</svg>
