<?xml version="1.0" encoding="utf-8"?>
<!-- Generator: Adobe Illustrator 22.1.0, SVG Export Plug-In . SVG Version: 6.00 Build 0)  -->
<svg version="1.1" id="Layer_1" xmlns="http://www.w3.org/2000/svg" xmlns:xlink="http://www.w3.org/1999/xlink" x="0px" y="0px"
	 viewBox="0 0 1152.2 738" style="enable-background:new 0 0 1152.2 738;" xml:space="preserve">
<style type="text/css">
	.st0{clip-path:url(#SVGID_2_);fill:none;stroke:#FFFFFF;stroke-width:10.514;stroke-miterlimit:10;}
</style>
<g>
	<defs>
		<rect id="SVGID_1_" width="1152.2" height="738"/>
	</defs>
	<clipPath id="SVGID_2_">
		<use xlink:href="#SVGID_1_"  style="overflow:visible;"/>
	</clipPath>
	<path class="st0" d="M311.2,1486.6l648.7-648.7c58.2-58.2,137.2-91,219.6-91h759.2 M264.6,1440.1l648.7-648.7
		c58.2-58.2,137.2-91,219.6-91h759.2 M218.1,1393.5l648.7-648.7c58.2-58.2,137.2-91,219.6-91h759.2 M171.5,1347l648.7-648.7
		c58.2-58.2,137.2-91,219.6-91h759.2 M125,1300.4l648.7-648.7c58.2-58.2,137.2-91,219.6-91h759.2 M78.5,1253.9l648.7-648.7
		c58.2-58.2,137.2-91,219.6-91H1706 M31.9,1207.4l648.7-648.7c58.2-58.2,137.2-91,219.6-91h759.2 M-14.6,1160.8l648.7-648.7
		c58.2-58.2,137.2-91,219.6-91h759.2 M-61.2,1114.3l648.7-648.7c58.2-58.2,137.2-91,219.6-91h759.2 M-107.7,1067.7L541,419
		c58.2-58.2,137.2-91,219.6-91h759.2 M-154.3,1021.2l648.7-648.7c58.2-58.2,137.2-91,219.6-91h759.2 M-200.8,974.7L448,325.9
		c58.2-58.2,137.2-91,219.6-91h759.2 M-247.3,928.1l648.7-648.7c58.2-58.2,137.2-91,219.6-91h759.2 M-293.9,881.6l648.7-648.7
		c58.2-58.2,137.2-91,219.6-91h759.2 M-340.4,835l648.7-648.7c58.2-58.2,137.2-91,219.6-91h759.2 M-387,788.5l648.7-648.7
		c58.2-58.2,137.2-91,219.6-91h759.2 M-433.5,741.9L215.2,93.2c58.2-58.2,137.2-91,219.6-91h759.2 M-480,695.4L168.7,46.7
		c58.2-58.2,137.2-91,219.6-91h759.2 M-526.6,648.9L122.2,0.1c58.2-58.2,137.2-91,219.6-91H1101 M-573.1,602.3L75.6-46.4
		c58.2-58.2,137.2-91,219.6-91h759.2 M-619.7,555.8L29.1-93c58.2-58.2,137.2-91,219.6-91h759.2 M-666.2,509.2l648.7-648.7
		c58.2-58.2,137.2-91,219.6-91h759.2"/>
</g>
</svg>
