<?xml version="1.0" encoding="utf-8"?>
<!-- Generator: Adobe Illustrator 22.1.0, SVG Export Plug-In . SVG Version: 6.00 Build 0)  -->
<svg version="1.1" id="Layer_1" xmlns="http://www.w3.org/2000/svg" xmlns:xlink="http://www.w3.org/1999/xlink" x="0px" y="0px"
	 viewBox="0 0 1152.2 738" style="enable-background:new 0 0 1152.2 738;" xml:space="preserve">
<style type="text/css">
	.st0{clip-path:url(#SVGID_2_);fill:none;stroke:#FFFFFF;stroke-width:2;stroke-miterlimit:10;}
</style>
<g>
	<defs>
		<rect id="SVGID_1_" width="1152.2" height="738"/>
	</defs>
	<clipPath id="SVGID_2_">
		<use xlink:href="#SVGID_1_"  style="overflow:visible;"/>
	</clipPath>
	<path class="st0" d="M2.6,391.7h490.1c0,0.2,0,0.4,0,0.7c0,26.9,104.9,48.7,234.2,48.7c129.4,0,234.2-21.8,234.2-48.7
		c0-0.2,0-0.4,0-0.7h188.6 M492.8,593.3H2.6V467h490.1c0,0.2,0,0.4,0,0.6c0,26.9,104.9,48.7,234.2,48.7
		c129.4,0,234.2-21.8,234.2-48.7c0-0.2,0-0.4,0-0.6h188.6v126.3H961c0.1,0.5,0.1,1,0.1,1.5c0,26.9-104.9,48.7-234.2,48.7
		c-129.4,0-234.2-21.8-234.2-48.7C492.7,594.3,492.7,593.8,492.8,593.3z M651.5,272.3c0,0-0.1,0-0.1,0
		c-91.3-6.5-157.3-24.3-158.7-45.4H2.6v89.6h490.3c-0.1,0.6-0.2,1.2-0.2,1.9c0,26.9,104.9,48.7,234.2,48.7
		c129.4,0,234.2-21.8,234.2-48.7c0-0.7-0.1-1.3-0.2-1.9h188.7v-89.6H961.1c-1.4,21.1-67.3,39-158.7,45.4c0,0-0.1,0-0.1,0
		 M802.3,272.3c0,0,0.1,0,0.1,0 M651.4,272.3c0,0,0.1,0,0.1,0 M492.7,226.9c1.4,21.1,67.3,39,158.7,45.4c0,0,0.1,0,0.1,0
		c23.7,1.7,49,2.6,75.4,2.6c26.4,0,51.7-0.9,75.4-2.6c0,0,0.1,0,0.1,0c91.3-6.5,157.3-24.3,158.7-45.4 M493.7,27.1H2.6v119.3h490.1
		c1.6,26.6,105.8,48,234.2,48c128.3,0,232.6-21.4,234.2-48h124.6V27.1H960.1c-11,24.7-111.2,44.1-233.2,44.1
		C604.9,71.2,504.7,51.8,493.7,27.1z M961.1,620.1h188.6v46.7H961.1c0,0.2,0,0.4,0,0.7c0,26.9-104.9,48.7-234.2,48.7
		c-129.4,0-234.2-21.8-234.2-48.7c0-0.2,0-0.4,0-0.7H2.6v-46.7h490.1c0,0.2,0,0.4,0,0.7c0,8.4,10.4,16.4,28.7,23.4
		c27.9,10.6,74.2,18.8,129.9,22.7c23.7,1.7,49.2,2.6,75.7,2.6s51.9-0.9,75.7-2.6c55.7-3.9,101.9-12.1,129.9-22.7
		c18.3-7,28.7-14.9,28.7-23.4C961.1,620.5,961.1,620.3,961.1,620.1z M1149.6,41.4c0,10.7-8.7,19.5-19.5,19.5
		c-10.8,0-19.5-8.7-19.5-19.5c0-10.8,8.7-19.5,19.5-19.5C1140.9,21.9,1149.6,30.6,1149.6,41.4z M802.6,666.8H651.2"/>
</g>
</svg>
