<?xml version="1.0" encoding="utf-8"?>
<!-- Generator: Adobe Illustrator 22.1.0, SVG Export Plug-In . SVG Version: 6.00 Build 0)  -->
<svg version="1.1" id="Layer_1" xmlns="http://www.w3.org/2000/svg" xmlns:xlink="http://www.w3.org/1999/xlink" x="0px" y="0px"
	 viewBox="0 0 486 80" style="enable-background:new 0 0 486 80;" xml:space="preserve">
<style type="text/css">
	.st0{fill:#FFFFFF;}
	.st1{clip-path:url(#SVGID_2_);fill:#FFFFFF;}
	.st2{clip-path:url(#SVGID_4_);fill:#FFFFFF;}
	.st3{clip-path:url(#SVGID_6_);fill:#FFFFFF;}
	.st4{clip-path:url(#SVGID_8_);fill:#FFFFFF;}
</style>
<polygon class="st0" points="0,0 0,80 0.1,80 0.1,80 40.3,80 40.3,73 7,73 7,43.6 21,43.6 21,36.5 7,36.5 7,7 40.2,7 40.2,0 "/>
<polygon class="st0" points="48,0 48,7 80.8,7 80.8,36.5 65.2,36.5 65.2,43.6 80.8,43.6 80.8,73 47.9,73 47.9,80 87.7,80 87.7,80 
	87.8,80 87.8,0 "/>
<g>
	<defs>
		<rect id="SVGID_1_" y="0" width="486" height="80"/>
	</defs>
	<clipPath id="SVGID_2_">
		<use xlink:href="#SVGID_1_"  style="overflow:visible;"/>
	</clipPath>
	<path class="st1" d="M58.2,40.2c0-8.3-6.7-15-15-15c-8.3,0-15,6.7-15,15s6.7,15,15,15C51.5,55.3,58.2,48.5,58.2,40.2 M43.2,50.1
		c-5.4,0-9.8-4.4-9.8-9.8s4.4-9.8,9.8-9.8c5.4,0,9.8,4.4,9.8,9.8S48.6,50.1,43.2,50.1"/>
</g>
<polygon class="st0" points="119.2,6.9 119.2,14 131.5,14 131.5,19.8 119.2,19.8 119.2,27.6 133.4,27.6 133.4,33.6 112.4,33.6 
	112.4,1 133.3,1 133.3,6.9 "/>
<polygon class="st0" points="166.2,27.6 166.2,33.6 145.2,33.6 145.2,1 152,1 152,27.6 "/>
<polygon class="st0" points="184.3,6.9 184.3,14 196.5,14 196.5,19.8 184.3,19.8 184.3,27.6 198.5,27.6 198.5,33.6 177.5,33.6 
	177.5,1 198.4,1 198.4,6.9 "/>
<polygon class="st0" points="239.5,33.6 239.5,16 230.5,33.3 226,33.3 217,16 217,33.6 210.3,33.6 210.3,1 216.2,1 228.3,23.4 
	240.2,1 246.1,1 246.1,33.6 "/>
<polygon class="st0" points="266,6.9 266,14 278.3,14 278.3,19.8 266,19.8 266,27.6 280.2,27.6 280.2,33.6 259.3,33.6 259.3,1 
	280.2,1 280.2,6.9 "/>
<polygon class="st0" points="313.1,33.6 298.8,13.4 298.8,33.6 292,33.6 292,1 297.7,1 312.1,21.2 312.1,1 318.8,1 318.8,33.6 "/>
<polygon class="st0" points="347.1,6.9 347.1,33.6 340.4,33.6 340.4,6.9 329.4,6.9 329.4,1 358,1 358,6.9 "/>
<g>
	<defs>
		<rect id="SVGID_3_" y="0" width="486" height="80"/>
	</defs>
	<clipPath id="SVGID_4_">
		<use xlink:href="#SVGID_3_"  style="overflow:visible;"/>
	</clipPath>
	<path class="st2" d="M391.7,10.5l-6.9,0.3c0-2.7-2-4.5-5.1-4.5c-3.1,0-4.8,1.6-4.8,3.9c0,2.5,1.9,3.2,6.4,4.2
		c6.7,1.7,11.1,3.8,11.1,9.6c0,6.9-5.4,10-12,10c-7.5,0-13-3.7-13.1-10.5l6.8-0.3c0.1,3,2.7,5,6.2,5c3,0,5.1-1.1,5.1-3.7
		c0-2.5-2.4-3.4-6.7-4.5c-5.9-1.5-10.8-3.2-10.8-9.5c0-5.4,3.8-10,11.6-10C386.7,0.5,391.5,4.3,391.7,10.5"/>
	<path class="st2" d="M453.1,17.3c0,10.2-7.2,16.8-16.9,16.8c-9.8,0-17-6.5-17-16.8s7.1-16.8,17-16.8C446,0.5,453.1,7.1,453.1,17.3
		 M426.1,17.3c0,6.7,4.1,10.8,10.1,10.8c5.9,0,10-4.1,10-10.8c0-6.8-4.1-10.8-10-10.8C430.3,6.5,426.1,10.5,426.1,17.3"/>
</g>
<polygon class="st0" points="465.1,1 465.1,33.6 471.8,33.6 471.8,19.9 483.4,19.9 483.4,14 471.8,14 471.8,6.9 486,6.9 486,1 "/>
<polygon class="st0" points="119.2,52.3 119.2,59.4 131.5,59.4 131.5,65.2 119.2,65.2 119.2,73 133.4,73 133.4,79 112.4,79 
	112.4,46.4 133.3,46.4 133.3,52.3 "/>
<polygon class="st0" points="177.3,79 169.5,79 162.3,66.9 155,79 147.2,79 157.3,62.4 147.8,46.4 155.5,46.4 162.3,57.9 169,46.4 
	176.8,46.4 167.3,62.4 "/>
<g>
	<defs>
		<rect id="SVGID_5_" y="0" width="486" height="80"/>
	</defs>
	<clipPath id="SVGID_6_">
		<use xlink:href="#SVGID_5_"  style="overflow:visible;"/>
	</clipPath>
	<path class="st3" d="M206.5,46.4c6.2,0,10.5,3.8,10.5,10.5s-4.3,10.5-10.5,10.5h-7.4V79h-6.8V46.4H206.5z M199.1,61.4h6.5
		c2.6,0,4.5-1.6,4.5-4.5c0-3-1.9-4.6-4.5-4.6h-6.5V61.4z"/>
</g>
<polygon class="st0" points="239.2,52.3 239.2,59.4 251.5,59.4 251.5,65.2 239.2,65.2 239.2,73 253.5,73 253.5,79 232.5,79 
	232.5,46.4 253.4,46.4 253.4,52.3 "/>
<g>
	<defs>
		<rect id="SVGID_7_" y="0" width="486" height="80"/>
	</defs>
	<clipPath id="SVGID_8_">
		<use xlink:href="#SVGID_7_"  style="overflow:visible;"/>
	</clipPath>
	<path class="st4" d="M282,67.3h-5.4V79h-6.8V46.4h13.9c6.2,0,10.5,3.7,10.5,10.5c0,4.5-2,7.8-5.2,9.3l6.9,12.8h-7.6L282,67.3z
		 M282.9,61.3c2.6,0,4.5-1.6,4.5-4.4c0-3-1.9-4.5-4.5-4.5h-6.4v9H282.9z"/>
</g>
<rect x="311.6" y="46.4" class="st0" width="6.8" height="32.6"/>
<polygon class="st0" points="342.7,52.3 342.7,59.4 355,59.4 355,65.2 342.7,65.2 342.7,73 356.9,73 356.9,79 335.9,79 335.9,46.4 
	356.8,46.4 356.8,52.3 "/>
<polygon class="st0" points="394.2,79 379.9,58.8 379.9,79 373.2,79 373.2,46.4 378.9,46.4 393.2,66.6 393.2,46.4 399.9,46.4 
	399.9,79 "/>
<g>
	<path class="st0" d="M448.4,58.3l-7,0.6c-0.9-4.6-4.2-7.1-8.7-7.1c-5.7,0-9.5,4.2-9.5,10.8c0,7.1,4.2,10.8,9.5,10.8
		c4.4,0,7.8-2.4,8.6-6.9l7.1,0.6c-1.3,7.6-7.6,12.3-15.5,12.3c-9.5,0-16.6-6.3-16.6-16.8c0-10.5,7-16.8,16.6-16.8
		C440.8,45.9,447.2,50.6,448.4,58.3"/>
</g>
<polygon class="st0" points="471.3,52.3 471.3,59.4 483.6,59.4 483.6,65.2 471.3,65.2 471.3,73 485.5,73 485.5,79 464.5,79 
	464.5,46.4 485.4,46.4 485.4,52.3 "/>
</svg>
